<?xml version="1.0" encoding="UTF-8" standalone="yes"?><svg xmlns="http://www.w3.org/2000/svg" xmlns:xlink="http://www.w3.org/1999/xlink" height="486pt" style="width:660px;height:486px;" version="1.1" viewBox="0 0 660 486" width="660pt"><defs><filter height="300%" id="f1" width="300%" x="-1" y="-1"><feGaussianBlur result="blurOut" stdDeviation="2.0"/><feColorMatrix in="blurOut" result="blurOut2" type="matrix" values="0 0 0 0 0 0 0 0 0 0 0 0 0 0 0 0 0 0 .4 0"/><feOffset dx="4.0" dy="4.0" in="blurOut2" result="blurOut3"/><feBlend in="SourceGraphic" in2="blurOut3" mode="normal"/></filter></defs><g><rect fill="#FFFFFF" filter="url(#f1)" height="233.0625" style="stroke: #FFFFFF; stroke-width: 1.0;" width="10" x="54.5" y="68.4297"/><line style="stroke: #A80036; stroke-width: 1.0;" x1="54.5" x2="54.5" y1="68.4297" y2="301.4922"/><line style="stroke: #A80036; stroke-width: 1.0;" x1="64.5" x2="64.5" y1="68.4297" y2="301.4922"/><line style="stroke: #A80036; stroke-width: 1.0;" x1="54.5" x2="64.5" y1="68.4297" y2="68.4297"/><rect fill="#FFFFFF" filter="url(#f1)" height="146.6641" style="stroke: #FFFFFF; stroke-width: 1.0;" width="10" x="54.5" y="329.4922"/><line style="stroke: #A80036; stroke-width: 1.0;" x1="54.5" x2="54.5" y1="329.4922" y2="476.1563"/><line style="stroke: #A80036; stroke-width: 1.0;" x1="64.5" x2="64.5" y1="329.4922" y2="476.1563"/><rect fill="#FFFFFF" filter="url(#f1)" height="233.0625" style="stroke: #FFFFFF; stroke-width: 1.0;" width="10" x="234.5" y="68.4297"/><line style="stroke: #A80036; stroke-width: 1.0;" x1="234.5" x2="234.5" y1="68.4297" y2="301.4922"/><line style="stroke: #A80036; stroke-width: 1.0;" x1="244.5" x2="244.5" y1="68.4297" y2="301.4922"/><line style="stroke: #A80036; stroke-width: 1.0;" x1="234.5" x2="244.5" y1="68.4297" y2="68.4297"/><rect fill="#FFFFFF" filter="url(#f1)" height="146.6641" style="stroke: #FFFFFF; stroke-width: 1.0;" width="10" x="234.5" y="329.4922"/><line style="stroke: #A80036; stroke-width: 1.0;" x1="234.5" x2="234.5" y1="329.4922" y2="476.1563"/><line style="stroke: #A80036; stroke-width: 1.0;" x1="244.5" x2="244.5" y1="329.4922" y2="476.1563"/><rect fill="#FFFFFF" filter="url(#f1)" height="95.5313" style="stroke: #FFFFFF; stroke-width: 1.0;" width="10" x="239.5" y="205.9609"/><line style="stroke: #A80036; stroke-width: 1.0;" x1="239.5" x2="239.5" y1="205.9609" y2="301.4922"/><line style="stroke: #A80036; stroke-width: 1.0;" x1="249.5" x2="249.5" y1="205.9609" y2="301.4922"/><line style="stroke: #A80036; stroke-width: 1.0;" x1="239.5" x2="249.5" y1="205.9609" y2="205.9609"/><rect fill="#FFFFFF" filter="url(#f1)" height="108.3984" style="stroke: #FFFFFF; stroke-width: 1.0;" width="10" x="239.5" y="329.4922"/><line style="stroke: #A80036; stroke-width: 1.0;" x1="239.5" x2="239.5" y1="329.4922" y2="437.8906"/><line style="stroke: #A80036; stroke-width: 1.0;" x1="249.5" x2="249.5" y1="329.4922" y2="437.8906"/><line style="stroke: #A80036; stroke-width: 1.0;" x1="239.5" x2="249.5" y1="437.8906" y2="437.8906"/><rect fill="#FFFFFF" filter="url(#f1)" height="212.0625" style="stroke: #FFFFFF; stroke-width: 1.0;" width="10" x="383.5" y="89.4297"/><line style="stroke: #A80036; stroke-width: 1.0;" x1="383.5" x2="383.5" y1="89.4297" y2="301.4922"/><line style="stroke: #A80036; stroke-width: 1.0;" x1="393.5" x2="393.5" y1="89.4297" y2="301.4922"/><line style="stroke: #A80036; stroke-width: 1.0;" x1="383.5" x2="393.5" y1="89.4297" y2="89.4297"/><rect fill="#FFFFFF" filter="url(#f1)" height="146.6641" style="stroke: #FFFFFF; stroke-width: 1.0;" width="10" x="383.5" y="329.4922"/><line style="stroke: #A80036; stroke-width: 1.0;" x1="383.5" x2="383.5" y1="329.4922" y2="476.1563"/><line style="stroke: #A80036; stroke-width: 1.0;" x1="393.5" x2="393.5" y1="329.4922" y2="476.1563"/><rect fill="#FFFFFF" filter="url(#f1)" height="233.0625" style="stroke: #FFFFFF; stroke-width: 1.0;" width="10" x="569.5" y="68.4297"/><line style="stroke: #A80036; stroke-width: 1.0;" x1="569.5" x2="569.5" y1="68.4297" y2="301.4922"/><line style="stroke: #A80036; stroke-width: 1.0;" x1="579.5" x2="579.5" y1="68.4297" y2="301.4922"/><line style="stroke: #A80036; stroke-width: 1.0;" x1="569.5" x2="579.5" y1="68.4297" y2="68.4297"/><rect fill="#FFFFFF" filter="url(#f1)" height="146.6641" style="stroke: #FFFFFF; stroke-width: 1.0;" width="10" x="569.5" y="329.4922"/><line style="stroke: #A80036; stroke-width: 1.0;" x1="569.5" x2="569.5" y1="329.4922" y2="476.1563"/><line style="stroke: #A80036; stroke-width: 1.0;" x1="579.5" x2="579.5" y1="329.4922" y2="476.1563"/><rect fill="#DDDDDD" height="475.1563" style="stroke: #A80036; stroke-width: 1.0;" width="291.5" x="4" y="4"/><text fill="#000000" font-family="sans-serif" font-size="13" font-weight="bold" lengthAdjust="spacingAndGlyphs" textLength="121" x="89.25" y="16.0669">Source Endpoint</text><rect fill="#DDDDDD" height="475.1563" style="stroke: #A80036; stroke-width: 1.0;" width="321.5" x="338" y="4"/><text fill="#000000" font-family="sans-serif" font-size="13" font-weight="bold" lengthAdjust="spacingAndGlyphs" textLength="102" x="447.75" y="16.0669">Sink Endpoint</text><line style="stroke: #A80036; stroke-width: 1.0;" x1="59" x2="59" y1="58.4297" y2="301.4922"/><line style="stroke: #A80036; stroke-width: 1.0; stroke-dasharray: 1.0,4.0;" x1="59" x2="59" y1="301.4922" y2="329.4922"/><line style="stroke: #A80036; stroke-width: 1.0;" x1="59" x2="59" y1="329.4922" y2="485.1563"/><line style="stroke: #A80036; stroke-width: 1.0;" x1="239.5" x2="239.5" y1="58.4297" y2="301.4922"/><line style="stroke: #A80036; stroke-width: 1.0; stroke-dasharray: 1.0,4.0;" x1="239.5" x2="239.5" y1="301.4922" y2="329.4922"/><line style="stroke: #A80036; stroke-width: 1.0;" x1="239.5" x2="239.5" y1="329.4922" y2="485.1563"/><line style="stroke: #A80036; stroke-width: 1.0;" x1="388" x2="388" y1="58.4297" y2="301.4922"/><line style="stroke: #A80036; stroke-width: 1.0; stroke-dasharray: 1.0,4.0;" x1="388" x2="388" y1="301.4922" y2="329.4922"/><line style="stroke: #A80036; stroke-width: 1.0;" x1="388" x2="388" y1="329.4922" y2="485.1563"/><line style="stroke: #A80036; stroke-width: 1.0;" x1="574.5" x2="574.5" y1="58.4297" y2="301.4922"/><line style="stroke: #A80036; stroke-width: 1.0; stroke-dasharray: 1.0,4.0;" x1="574.5" x2="574.5" y1="301.4922" y2="329.4922"/><line style="stroke: #A80036; stroke-width: 1.0;" x1="574.5" x2="574.5" y1="329.4922" y2="485.1563"/><rect fill="#FEFECE" filter="url(#f1)" height="30.2969" style="stroke: #A80036; stroke-width: 1.5;" width="99" x="8" y="23.1328"/><text fill="#000000" font-family="sans-serif" font-size="14" lengthAdjust="spacingAndGlyphs" textLength="85" x="15" y="43.1279">Flow Control</text><rect fill="#FEFECE" filter="url(#f1)" height="30.2969" style="stroke: #A80036; stroke-width: 1.5;" width="100" x="187.5" y="23.1328"/><text fill="#000000" font-family="sans-serif" font-size="14" lengthAdjust="spacingAndGlyphs" textLength="86" x="194.5" y="43.1279">Data Service</text><rect fill="#FEFECE" filter="url(#f1)" height="30.2969" style="stroke: #A80036; stroke-width: 1.5;" width="89" x="342" y="23.1328"/><text fill="#000000" font-family="sans-serif" font-size="14" lengthAdjust="spacingAndGlyphs" textLength="75" x="349" y="43.1279">Data Client</text><rect fill="#FEFECE" filter="url(#f1)" height="30.2969" style="stroke: #A80036; stroke-width: 1.5;" width="158" x="493.5" y="23.1328"/><text fill="#000000" font-family="sans-serif" font-size="14" lengthAdjust="spacingAndGlyphs" textLength="144" x="500.5" y="43.1279">Remote Flow Control</text><rect fill="#FFFFFF" filter="url(#f1)" height="233.0625" style="stroke: #FFFFFF; stroke-width: 1.0;" width="10" x="54.5" y="68.4297"/><line style="stroke: #A80036; stroke-width: 1.0;" x1="54.5" x2="54.5" y1="68.4297" y2="301.4922"/><line style="stroke: #A80036; stroke-width: 1.0;" x1="64.5" x2="64.5" y1="68.4297" y2="301.4922"/><line style="stroke: #A80036; stroke-width: 1.0;" x1="54.5" x2="64.5" y1="68.4297" y2="68.4297"/><rect fill="#FFFFFF" filter="url(#f1)" height="146.6641" style="stroke: #FFFFFF; stroke-width: 1.0;" width="10" x="54.5" y="329.4922"/><line style="stroke: #A80036; stroke-width: 1.0;" x1="54.5" x2="54.5" y1="329.4922" y2="476.1563"/><line style="stroke: #A80036; stroke-width: 1.0;" x1="64.5" x2="64.5" y1="329.4922" y2="476.1563"/><rect fill="#FFFFFF" filter="url(#f1)" height="233.0625" style="stroke: #FFFFFF; stroke-width: 1.0;" width="10" x="234.5" y="68.4297"/><line style="stroke: #A80036; stroke-width: 1.0;" x1="234.5" x2="234.5" y1="68.4297" y2="301.4922"/><line style="stroke: #A80036; stroke-width: 1.0;" x1="244.5" x2="244.5" y1="68.4297" y2="301.4922"/><line style="stroke: #A80036; stroke-width: 1.0;" x1="234.5" x2="244.5" y1="68.4297" y2="68.4297"/><rect fill="#FFFFFF" filter="url(#f1)" height="146.6641" style="stroke: #FFFFFF; stroke-width: 1.0;" width="10" x="234.5" y="329.4922"/><line style="stroke: #A80036; stroke-width: 1.0;" x1="234.5" x2="234.5" y1="329.4922" y2="476.1563"/><line style="stroke: #A80036; stroke-width: 1.0;" x1="244.5" x2="244.5" y1="329.4922" y2="476.1563"/><rect fill="#FFFFFF" filter="url(#f1)" height="95.5313" style="stroke: #FFFFFF; stroke-width: 1.0;" width="10" x="239.5" y="205.9609"/><line style="stroke: #A80036; stroke-width: 1.0;" x1="239.5" x2="239.5" y1="205.9609" y2="301.4922"/><line style="stroke: #A80036; stroke-width: 1.0;" x1="249.5" x2="249.5" y1="205.9609" y2="301.4922"/><line style="stroke: #A80036; stroke-width: 1.0;" x1="239.5" x2="249.5" y1="205.9609" y2="205.9609"/><rect fill="#FFFFFF" filter="url(#f1)" height="108.3984" style="stroke: #FFFFFF; stroke-width: 1.0;" width="10" x="239.5" y="329.4922"/><line style="stroke: #A80036; stroke-width: 1.0;" x1="239.5" x2="239.5" y1="329.4922" y2="437.8906"/><line style="stroke: #A80036; stroke-width: 1.0;" x1="249.5" x2="249.5" y1="329.4922" y2="437.8906"/><line style="stroke: #A80036; stroke-width: 1.0;" x1="239.5" x2="249.5" y1="437.8906" y2="437.8906"/><rect fill="#FFFFFF" filter="url(#f1)" height="212.0625" style="stroke: #FFFFFF; stroke-width: 1.0;" width="10" x="383.5" y="89.4297"/><line style="stroke: #A80036; stroke-width: 1.0;" x1="383.5" x2="383.5" y1="89.4297" y2="301.4922"/><line style="stroke: #A80036; stroke-width: 1.0;" x1="393.5" x2="393.5" y1="89.4297" y2="301.4922"/><line style="stroke: #A80036; stroke-width: 1.0;" x1="383.5" x2="393.5" y1="89.4297" y2="89.4297"/><rect fill="#FFFFFF" filter="url(#f1)" height="146.6641" style="stroke: #FFFFFF; stroke-width: 1.0;" width="10" x="383.5" y="329.4922"/><line style="stroke: #A80036; stroke-width: 1.0;" x1="383.5" x2="383.5" y1="329.4922" y2="476.1563"/><line style="stroke: #A80036; stroke-width: 1.0;" x1="393.5" x2="393.5" y1="329.4922" y2="476.1563"/><rect fill="#FFFFFF" filter="url(#f1)" height="233.0625" style="stroke: #FFFFFF; stroke-width: 1.0;" width="10" x="569.5" y="68.4297"/><line style="stroke: #A80036; stroke-width: 1.0;" x1="569.5" x2="569.5" y1="68.4297" y2="301.4922"/><line style="stroke: #A80036; stroke-width: 1.0;" x1="579.5" x2="579.5" y1="68.4297" y2="301.4922"/><line style="stroke: #A80036; stroke-width: 1.0;" x1="569.5" x2="579.5" y1="68.4297" y2="68.4297"/><rect fill="#FFFFFF" filter="url(#f1)" height="146.6641" style="stroke: #FFFFFF; stroke-width: 1.0;" width="10" x="569.5" y="329.4922"/><line style="stroke: #A80036; stroke-width: 1.0;" x1="569.5" x2="569.5" y1="329.4922" y2="476.1563"/><line style="stroke: #A80036; stroke-width: 1.0;" x1="579.5" x2="579.5" y1="329.4922" y2="476.1563"/><polygon fill="#A80036" points="404.5,85.4297,394.5,89.4297,404.5,93.4297,400.5,89.4297" style="stroke: #A80036; stroke-width: 1.0;"/><line style="stroke: #A80036; stroke-width: 1.0;" x1="398.5" x2="568.5" y1="89.4297" y2="89.4297"/><text fill="#000000" font-family="sans-serif" font-size="13" lengthAdjust="spacingAndGlyphs" textLength="30" x="410.5" y="84.4966">start</text><polygon fill="#A80036" points="255.5,114.5625,245.5,118.5625,255.5,122.5625,251.5,118.5625" style="stroke: #A80036; stroke-width: 1.0;"/><line style="stroke: #A80036; stroke-width: 1.0;" x1="249.5" x2="382.5" y1="118.5625" y2="118.5625"/><text fill="#000000" font-family="sans-serif" font-size="13" lengthAdjust="spacingAndGlyphs" textLength="51" x="261.5" y="113.6294">connect</text><polygon fill="#A80036" points="557.5,143.6953,567.5,147.6953,557.5,151.6953,561.5,147.6953" style="stroke: #A80036; stroke-width: 1.0;"/><line style="stroke: #A80036; stroke-width: 1.0;" x1="393.5" x2="563.5" y1="147.6953" y2="147.6953"/><text fill="#000000" font-family="sans-serif" font-size="13" lengthAdjust="spacingAndGlyphs" textLength="126" x="400.5" y="142.7622">request registration</text><polygon fill="#A80036" points="75.5,172.8281,65.5,176.8281,75.5,180.8281,71.5,176.8281" style="stroke: #A80036; stroke-width: 1.0;"/><line style="stroke: #A80036; stroke-width: 1.0;" x1="69.5" x2="568.5" y1="176.8281" y2="176.8281"/><text fill="#000000" font-family="sans-serif" font-size="13" lengthAdjust="spacingAndGlyphs" textLength="144" x="81.5" y="171.895">{RegistrationRequest}</text><polygon fill="#A80036" points="227.5,201.9609,237.5,205.9609,227.5,209.9609,231.5,205.9609" style="stroke: #A80036; stroke-width: 1.0;"/><line style="stroke: #A80036; stroke-width: 1.0;" x1="64.5" x2="233.5" y1="205.9609" y2="205.9609"/><text fill="#000000" font-family="sans-serif" font-size="13" lengthAdjust="spacingAndGlyphs" textLength="146" x="71.5" y="201.0278">call for synchronisation</text><polygon fill="#A80036" points="371.5,231.0938,381.5,235.0938,371.5,239.0938,375.5,235.0938" style="stroke: #A80036; stroke-width: 1.0;"/><line style="stroke: #A80036; stroke-width: 1.0;" x1="249.5" x2="377.5" y1="235.0938" y2="235.0938"/><text fill="#000000" font-family="sans-serif" font-size="13" lengthAdjust="spacingAndGlyphs" textLength="110" x="256.5" y="230.1606">{Sychronisation}</text><polygon fill="#A80036" points="557.5,260.2266,567.5,264.2266,557.5,268.2266,561.5,264.2266" style="stroke: #A80036; stroke-width: 1.0;"/><line style="stroke: #A80036; stroke-width: 1.0; stroke-dasharray: 2.0,2.0;" x1="64.5" x2="563.5" y1="264.2266" y2="264.2266"/><text fill="#000000" font-family="sans-serif" font-size="13" lengthAdjust="spacingAndGlyphs" textLength="261" x="71.5" y="259.2935">{RegistrationRequestAcknowledgement}</text><polygon fill="#A80036" points="404.5,289.3594,394.5,293.3594,404.5,297.3594,400.5,293.3594" style="stroke: #A80036; stroke-width: 1.0;"/><line style="stroke: #A80036; stroke-width: 1.0;" x1="398.5" x2="568.5" y1="293.3594" y2="293.3594"/><text fill="#000000" font-family="sans-serif" font-size="13" lengthAdjust="spacingAndGlyphs" textLength="142" x="410.5" y="288.4263">registration requested</text><polygon fill="#A80036" points="557.5,346.4922,567.5,350.4922,557.5,354.4922,561.5,350.4922" style="stroke: #A80036; stroke-width: 1.0;"/><line style="stroke: #A80036; stroke-width: 1.0; stroke-dasharray: 2.0,2.0;" x1="393.5" x2="563.5" y1="350.4922" y2="350.4922"/><text fill="#000000" font-family="sans-serif" font-size="13" lengthAdjust="spacingAndGlyphs" textLength="152" x="400.5" y="345.5591">confirm synchronisation</text><polygon fill="#A80036" points="75.5,375.625,65.5,379.625,75.5,383.625,71.5,379.625" style="stroke: #A80036; stroke-width: 1.0;"/><line style="stroke: #A80036; stroke-width: 1.0;" x1="69.5" x2="568.5" y1="379.625" y2="379.625"/><text fill="#000000" font-family="sans-serif" font-size="13" lengthAdjust="spacingAndGlyphs" textLength="145" x="81.5" y="374.6919">{RegistrationSuccess}</text><polygon fill="#A80036" points="371.5,404.7578,381.5,408.7578,371.5,412.7578,375.5,408.7578" style="stroke: #A80036; stroke-width: 1.0;"/><line style="stroke: #A80036; stroke-width: 1.0;" x1="249.5" x2="377.5" y1="408.7578" y2="408.7578"/><text fill="#000000" font-family="sans-serif" font-size="13" lengthAdjust="spacingAndGlyphs" textLength="110" x="256.5" y="403.8247">{Sychronisation}</text><polygon fill="#A80036" points="222.5,433.8906,232.5,437.8906,222.5,441.8906,226.5,437.8906" style="stroke: #A80036; stroke-width: 1.0;"/><line style="stroke: #A80036; stroke-width: 1.0;" x1="64.5" x2="228.5" y1="437.8906" y2="437.8906"/><text fill="#000000" font-family="sans-serif" font-size="13" lengthAdjust="spacingAndGlyphs" textLength="132" x="71.5" y="432.9575">stop synchronisation</text><polygon fill="#A80036" points="557.5,463.0234,567.5,467.0234,557.5,471.0234,561.5,467.0234" style="stroke: #A80036; stroke-width: 1.0;"/><line style="stroke: #A80036; stroke-width: 1.0; stroke-dasharray: 2.0,2.0;" x1="64.5" x2="563.5" y1="467.0234" y2="467.0234"/><text fill="#000000" font-family="sans-serif" font-size="13" lengthAdjust="spacingAndGlyphs" textLength="262" x="71.5" y="462.0903">{RegistrationSuccessAcknowledgement}</text></g></svg>