
<?xml version="1.0" encoding="UTF-8" standalone="yes"?><svg xmlns="http://www.w3.org/2000/svg" xmlns:xlink="http://www.w3.org/1999/xlink" height="530pt" style="width:767px;height:530px;" version="1.1" viewBox="0 0 767 530" width="767pt"><defs><filter height="300%" id="f1" width="300%" x="-1" y="-1"><feGaussianBlur result="blurOut" stdDeviation="2.0"/><feColorMatrix in="blurOut" result="blurOut2" type="matrix" values="0 0 0 0 0 0 0 0 0 0 0 0 0 0 0 0 0 0 .4 0"/><feOffset dx="4.0" dy="4.0" in="blurOut2" result="blurOut3"/><feBlend in="SourceGraphic" in2="blurOut3" mode="normal"/></filter></defs><g><rect fill="#FFFFFF" filter="url(#f1)" height="233.0625" style="stroke: #FFFFFF; stroke-width: 1.0;" width="10" x="63.5" y="112.5938"/><line style="stroke: #A80036; stroke-width: 1.0;" x1="63.5" x2="63.5" y1="112.5938" y2="345.6563"/><line style="stroke: #A80036; stroke-width: 1.0;" x1="73.5" x2="73.5" y1="112.5938" y2="345.6563"/><line style="stroke: #A80036; stroke-width: 1.0;" x1="63.5" x2="73.5" y1="112.5938" y2="112.5938"/><rect fill="#FFFFFF" filter="url(#f1)" height="146.6641" style="stroke: #FFFFFF; stroke-width: 1.0;" width="10" x="63.5" y="373.6563"/><line style="stroke: #A80036; stroke-width: 1.0;" x1="63.5" x2="63.5" y1="373.6563" y2="520.3203"/><line style="stroke: #A80036; stroke-width: 1.0;" x1="73.5" x2="73.5" y1="373.6563" y2="520.3203"/><rect fill="#FFFFFF" filter="url(#f1)" height="233.0625" style="stroke: #FFFFFF; stroke-width: 1.0;" width="10" x="243.5" y="112.5938"/><line style="stroke: #A80036; stroke-width: 1.0;" x1="243.5" x2="243.5" y1="112.5938" y2="345.6563"/><line style="stroke: #A80036; stroke-width: 1.0;" x1="253.5" x2="253.5" y1="112.5938" y2="345.6563"/><line style="stroke: #A80036; stroke-width: 1.0;" x1="243.5" x2="253.5" y1="112.5938" y2="112.5938"/><rect fill="#FFFFFF" filter="url(#f1)" height="146.6641" style="stroke: #FFFFFF; stroke-width: 1.0;" width="10" x="243.5" y="373.6563"/><line style="stroke: #A80036; stroke-width: 1.0;" x1="243.5" x2="243.5" y1="373.6563" y2="520.3203"/><line style="stroke: #A80036; stroke-width: 1.0;" x1="253.5" x2="253.5" y1="373.6563" y2="520.3203"/><rect fill="#FFFFFF" filter="url(#f1)" height="212.0625" style="stroke: #FFFFFF; stroke-width: 1.0;" width="10" x="387.5" y="133.5938"/><line style="stroke: #A80036; stroke-width: 1.0;" x1="387.5" x2="387.5" y1="133.5938" y2="345.6563"/><line style="stroke: #A80036; stroke-width: 1.0;" x1="397.5" x2="397.5" y1="133.5938" y2="345.6563"/><line style="stroke: #A80036; stroke-width: 1.0;" x1="387.5" x2="397.5" y1="133.5938" y2="133.5938"/><rect fill="#FFFFFF" filter="url(#f1)" height="146.6641" style="stroke: #FFFFFF; stroke-width: 1.0;" width="10" x="387.5" y="373.6563"/><line style="stroke: #A80036; stroke-width: 1.0;" x1="387.5" x2="387.5" y1="373.6563" y2="520.3203"/><line style="stroke: #A80036; stroke-width: 1.0;" x1="397.5" x2="397.5" y1="373.6563" y2="520.3203"/><rect fill="#FFFFFF" filter="url(#f1)" height="233.0625" style="stroke: #FFFFFF; stroke-width: 1.0;" width="10" x="573.5" y="112.5938"/><line style="stroke: #A80036; stroke-width: 1.0;" x1="573.5" x2="573.5" y1="112.5938" y2="345.6563"/><line style="stroke: #A80036; stroke-width: 1.0;" x1="583.5" x2="583.5" y1="112.5938" y2="345.6563"/><line style="stroke: #A80036; stroke-width: 1.0;" x1="573.5" x2="583.5" y1="112.5938" y2="112.5938"/><rect fill="#FFFFFF" filter="url(#f1)" height="146.6641" style="stroke: #FFFFFF; stroke-width: 1.0;" width="10" x="573.5" y="373.6563"/><line style="stroke: #A80036; stroke-width: 1.0;" x1="573.5" x2="573.5" y1="373.6563" y2="520.3203"/><line style="stroke: #A80036; stroke-width: 1.0;" x1="583.5" x2="583.5" y1="373.6563" y2="520.3203"/><rect fill="#DDDDDD" height="519.3203" style="stroke: #A80036; stroke-width: 1.0;" width="300.5" x="4" y="4"/><text fill="#000000" font-family="sans-serif" font-size="13" font-weight="bold" lengthAdjust="spacingAndGlyphs" textLength="121" x="93.75" y="16.0669">Source Endpoint</text><rect fill="#DDDDDD" height="519.3203" style="stroke: #A80036; stroke-width: 1.0;" width="309.5" x="342" y="4"/><text fill="#000000" font-family="sans-serif" font-size="13" font-weight="bold" lengthAdjust="spacingAndGlyphs" textLength="102" x="445.75" y="16.0669">Sink Endpoint</text><line style="stroke: #A80036; stroke-width: 1.0;" x1="68" x2="68" y1="102.5938" y2="345.6563"/><line style="stroke: #A80036; stroke-width: 1.0; stroke-dasharray: 1.0,4.0;" x1="68" x2="68" y1="345.6563" y2="373.6563"/><line style="stroke: #A80036; stroke-width: 1.0;" x1="68" x2="68" y1="373.6563" y2="529.3203"/><line style="stroke: #A80036; stroke-width: 1.0;" x1="248.5" x2="248.5" y1="102.5938" y2="345.6563"/><line style="stroke: #A80036; stroke-width: 1.0; stroke-dasharray: 1.0,4.0;" x1="248.5" x2="248.5" y1="345.6563" y2="373.6563"/><line style="stroke: #A80036; stroke-width: 1.0;" x1="248.5" x2="248.5" y1="373.6563" y2="529.3203"/><line style="stroke: #A80036; stroke-width: 1.0;" x1="392" x2="392" y1="102.5938" y2="345.6563"/><line style="stroke: #A80036; stroke-width: 1.0; stroke-dasharray: 1.0,4.0;" x1="392" x2="392" y1="345.6563" y2="373.6563"/><line style="stroke: #A80036; stroke-width: 1.0;" x1="392" x2="392" y1="373.6563" y2="529.3203"/><line style="stroke: #A80036; stroke-width: 1.0;" x1="578.5" x2="578.5" y1="102.5938" y2="345.6563"/><line style="stroke: #A80036; stroke-width: 1.0; stroke-dasharray: 1.0,4.0;" x1="578.5" x2="578.5" y1="345.6563" y2="373.6563"/><line style="stroke: #A80036; stroke-width: 1.0;" x1="578.5" x2="578.5" y1="373.6563" y2="529.3203"/><line style="stroke: #A80036; stroke-width: 1.0;" x1="714.5" x2="714.5" y1="102.5938" y2="345.6563"/><line style="stroke: #A80036; stroke-width: 1.0; stroke-dasharray: 1.0,4.0;" x1="714.5" x2="714.5" y1="345.6563" y2="373.6563"/><line style="stroke: #A80036; stroke-width: 1.0;" x1="714.5" x2="714.5" y1="373.6563" y2="529.3203"/><rect fill="#FEFECE" filter="url(#f1)" height="46.5938" style="stroke: #A80036; stroke-width: 1.5;" width="117" x="8" y="51"/><text fill="#000000" font-family="sans-serif" font-size="14" lengthAdjust="spacingAndGlyphs" textLength="103" x="15" y="70.9951">Source Control</text><text fill="#000000" font-family="sans-serif" font-size="14" lengthAdjust="spacingAndGlyphs" textLength="50" x="41.5" y="87.292">Service</text><rect fill="#FEFECE" filter="url(#f1)" height="30.2969" style="stroke: #A80036; stroke-width: 1.5;" width="100" x="196.5" y="67.2969"/><text fill="#000000" font-family="sans-serif" font-size="14" lengthAdjust="spacingAndGlyphs" textLength="86" x="203.5" y="87.292">Data Service</text><rect fill="#FEFECE" filter="url(#f1)" height="30.2969" style="stroke: #A80036; stroke-width: 1.5;" width="89" x="346" y="67.2969"/><text fill="#000000" font-family="sans-serif" font-size="14" lengthAdjust="spacingAndGlyphs" textLength="75" x="353" y="87.292">Data Client</text><rect fill="#FEFECE" filter="url(#f1)" height="30.2969" style="stroke: #A80036; stroke-width: 1.5;" width="134" x="509.5" y="67.2969"/><text fill="#000000" font-family="sans-serif" font-size="14" lengthAdjust="spacingAndGlyphs" textLength="120" x="516.5" y="87.292">Source Controller</text><text fill="#000000" font-family="sans-serif" font-size="14" font-style="italic" lengthAdjust="spacingAndGlyphs" textLength="109" x="657.5" y="84">&lt;&lt;Operator&gt;&gt;</text><text fill="#000000" font-family="sans-serif" font-size="14" lengthAdjust="spacingAndGlyphs" textLength="49" x="687.5" y="100.2969">SinkOp</text><ellipse cx="715" cy="13" fill="#FEFECE" filter="url(#f1)" rx="8" ry="8" style="stroke: #A80036; stroke-width: 2.0;"/><path d="M715,21 L715,48 M702,29 L728,29 M715,48 L702,63 M715,48 L728,63 " fill="#FEFECE" filter="url(#f1)" style="stroke: #A80036; stroke-width: 2.0;"/><rect fill="#FFFFFF" filter="url(#f1)" height="233.0625" style="stroke: #FFFFFF; stroke-width: 1.0;" width="10" x="63.5" y="112.5938"/><line style="stroke: #A80036; stroke-width: 1.0;" x1="63.5" x2="63.5" y1="112.5938" y2="345.6563"/><line style="stroke: #A80036; stroke-width: 1.0;" x1="73.5" x2="73.5" y1="112.5938" y2="345.6563"/><line style="stroke: #A80036; stroke-width: 1.0;" x1="63.5" x2="73.5" y1="112.5938" y2="112.5938"/><rect fill="#FFFFFF" filter="url(#f1)" height="146.6641" style="stroke: #FFFFFF; stroke-width: 1.0;" width="10" x="63.5" y="373.6563"/><line style="stroke: #A80036; stroke-width: 1.0;" x1="63.5" x2="63.5" y1="373.6563" y2="520.3203"/><line style="stroke: #A80036; stroke-width: 1.0;" x1="73.5" x2="73.5" y1="373.6563" y2="520.3203"/><rect fill="#FFFFFF" filter="url(#f1)" height="233.0625" style="stroke: #FFFFFF; stroke-width: 1.0;" width="10" x="243.5" y="112.5938"/><line style="stroke: #A80036; stroke-width: 1.0;" x1="243.5" x2="243.5" y1="112.5938" y2="345.6563"/><line style="stroke: #A80036; stroke-width: 1.0;" x1="253.5" x2="253.5" y1="112.5938" y2="345.6563"/><line style="stroke: #A80036; stroke-width: 1.0;" x1="243.5" x2="253.5" y1="112.5938" y2="112.5938"/><rect fill="#FFFFFF" filter="url(#f1)" height="146.6641" style="stroke: #FFFFFF; stroke-width: 1.0;" width="10" x="243.5" y="373.6563"/><line style="stroke: #A80036; stroke-width: 1.0;" x1="243.5" x2="243.5" y1="373.6563" y2="520.3203"/><line style="stroke: #A80036; stroke-width: 1.0;" x1="253.5" x2="253.5" y1="373.6563" y2="520.3203"/><rect fill="#FFFFFF" filter="url(#f1)" height="212.0625" style="stroke: #FFFFFF; stroke-width: 1.0;" width="10" x="387.5" y="133.5938"/><line style="stroke: #A80036; stroke-width: 1.0;" x1="387.5" x2="387.5" y1="133.5938" y2="345.6563"/><line style="stroke: #A80036; stroke-width: 1.0;" x1="397.5" x2="397.5" y1="133.5938" y2="345.6563"/><line style="stroke: #A80036; stroke-width: 1.0;" x1="387.5" x2="397.5" y1="133.5938" y2="133.5938"/><rect fill="#FFFFFF" filter="url(#f1)" height="146.6641" style="stroke: #FFFFFF; stroke-width: 1.0;" width="10" x="387.5" y="373.6563"/><line style="stroke: #A80036; stroke-width: 1.0;" x1="387.5" x2="387.5" y1="373.6563" y2="520.3203"/><line style="stroke: #A80036; stroke-width: 1.0;" x1="397.5" x2="397.5" y1="373.6563" y2="520.3203"/><rect fill="#FFFFFF" filter="url(#f1)" height="233.0625" style="stroke: #FFFFFF; stroke-width: 1.0;" width="10" x="573.5" y="112.5938"/><line style="stroke: #A80036; stroke-width: 1.0;" x1="573.5" x2="573.5" y1="112.5938" y2="345.6563"/><line style="stroke: #A80036; stroke-width: 1.0;" x1="583.5" x2="583.5" y1="112.5938" y2="345.6563"/><line style="stroke: #A80036; stroke-width: 1.0;" x1="573.5" x2="583.5" y1="112.5938" y2="112.5938"/><rect fill="#FFFFFF" filter="url(#f1)" height="146.6641" style="stroke: #FFFFFF; stroke-width: 1.0;" width="10" x="573.5" y="373.6563"/><line style="stroke: #A80036; stroke-width: 1.0;" x1="573.5" x2="573.5" y1="373.6563" y2="520.3203"/><line style="stroke: #A80036; stroke-width: 1.0;" x1="583.5" x2="583.5" y1="373.6563" y2="520.3203"/><polygon fill="#A80036" points="408.5,129.5938,398.5,133.5938,408.5,137.5938,404.5,133.5938" style="stroke: #A80036; stroke-width: 1.0;"/><line style="stroke: #A80036; stroke-width: 1.0;" x1="402.5" x2="714" y1="133.5938" y2="133.5938"/><text fill="#000000" font-family="sans-serif" font-size="13" lengthAdjust="spacingAndGlyphs" textLength="40" x="414.5" y="128.6606">start()</text><polygon fill="#A80036" points="264.5,158.7266,254.5,162.7266,264.5,166.7266,260.5,162.7266" style="stroke: #A80036; stroke-width: 1.0;"/><line style="stroke: #A80036; stroke-width: 1.0;" x1="258.5" x2="386.5" y1="162.7266" y2="162.7266"/><text fill="#000000" font-family="sans-serif" font-size="13" lengthAdjust="spacingAndGlyphs" textLength="51" x="270.5" y="157.7935">connect</text><polygon fill="#A80036" points="561.5,187.8594,571.5,191.8594,561.5,195.8594,565.5,191.8594" style="stroke: #A80036; stroke-width: 1.0;"/><line style="stroke: #A80036; stroke-width: 1.0;" x1="397.5" x2="567.5" y1="191.8594" y2="191.8594"/><text fill="#000000" font-family="sans-serif" font-size="13" lengthAdjust="spacingAndGlyphs" textLength="126" x="404.5" y="186.9263">request registration</text><polygon fill="#A80036" points="84.5,216.9922,74.5,220.9922,84.5,224.9922,80.5,220.9922" style="stroke: #A80036; stroke-width: 1.0;"/><line style="stroke: #A80036; stroke-width: 1.0;" x1="78.5" x2="572.5" y1="220.9922" y2="220.9922"/><text fill="#000000" font-family="sans-serif" font-size="13" lengthAdjust="spacingAndGlyphs" textLength="144" x="90.5" y="216.0591">{RegistrationRequest}</text><polygon fill="#A80036" points="231.5,246.125,241.5,250.125,231.5,254.125,235.5,250.125" style="stroke: #A80036; stroke-width: 1.0;"/><line style="stroke: #A80036; stroke-width: 1.0;" x1="73.5" x2="237.5" y1="250.125" y2="250.125"/><text fill="#000000" font-family="sans-serif" font-size="13" lengthAdjust="spacingAndGlyphs" textLength="146" x="80.5" y="245.1919">call for synchronisation</text><polygon fill="#A80036" points="375.5,275.2578,385.5,279.2578,375.5,283.2578,379.5,279.2578" style="stroke: #A80036; stroke-width: 1.0;"/><line style="stroke: #A80036; stroke-width: 1.0;" x1="253.5" x2="381.5" y1="279.2578" y2="279.2578"/><text fill="#000000" font-family="sans-serif" font-size="13" lengthAdjust="spacingAndGlyphs" textLength="110" x="260.5" y="274.3247">{Sychronisation}</text><polygon fill="#A80036" points="561.5,304.3906,571.5,308.3906,561.5,312.3906,565.5,308.3906" style="stroke: #A80036; stroke-width: 1.0;"/><line style="stroke: #A80036; stroke-width: 1.0; stroke-dasharray: 2.0,2.0;" x1="73.5" x2="567.5" y1="308.3906" y2="308.3906"/><text fill="#000000" font-family="sans-serif" font-size="13" lengthAdjust="spacingAndGlyphs" textLength="261" x="80.5" y="303.4575">{RegistrationRequestAcknowledgement}</text><polygon fill="#A80036" points="408.5,333.5234,398.5,337.5234,408.5,341.5234,404.5,337.5234" style="stroke: #A80036; stroke-width: 1.0;"/><line style="stroke: #A80036; stroke-width: 1.0;" x1="402.5" x2="572.5" y1="337.5234" y2="337.5234"/><text fill="#000000" font-family="sans-serif" font-size="13" lengthAdjust="spacingAndGlyphs" textLength="142" x="414.5" y="332.5903">registration requested</text><polygon fill="#A80036" points="561.5,390.6563,571.5,394.6563,561.5,398.6563,565.5,394.6563" style="stroke: #A80036; stroke-width: 1.0;"/><line style="stroke: #A80036; stroke-width: 1.0; stroke-dasharray: 2.0,2.0;" x1="397.5" x2="567.5" y1="394.6563" y2="394.6563"/><text fill="#000000" font-family="sans-serif" font-size="13" lengthAdjust="spacingAndGlyphs" textLength="152" x="404.5" y="389.7231">confirm synchronisation</text><polygon fill="#A80036" points="84.5,419.7891,74.5,423.7891,84.5,427.7891,80.5,423.7891" style="stroke: #A80036; stroke-width: 1.0;"/><line style="stroke: #A80036; stroke-width: 1.0;" x1="78.5" x2="572.5" y1="423.7891" y2="423.7891"/><text fill="#000000" font-family="sans-serif" font-size="13" lengthAdjust="spacingAndGlyphs" textLength="145" x="90.5" y="418.856">{RegistrationSuccess}</text><polygon fill="#A80036" points="375.5,448.9219,385.5,452.9219,375.5,456.9219,379.5,452.9219" style="stroke: #A80036; stroke-width: 1.0;"/><line style="stroke: #A80036; stroke-width: 1.0;" x1="253.5" x2="381.5" y1="452.9219" y2="452.9219"/><text fill="#000000" font-family="sans-serif" font-size="13" lengthAdjust="spacingAndGlyphs" textLength="110" x="260.5" y="447.9888">{Sychronisation}</text><polygon fill="#A80036" points="231.5,478.0547,241.5,482.0547,231.5,486.0547,235.5,482.0547" style="stroke: #A80036; stroke-width: 1.0;"/><line style="stroke: #A80036; stroke-width: 1.0;" x1="73.5" x2="237.5" y1="482.0547" y2="482.0547"/><text fill="#000000" font-family="sans-serif" font-size="13" lengthAdjust="spacingAndGlyphs" textLength="132" x="80.5" y="477.1216">stop synchronisation</text><polygon fill="#A80036" points="561.5,507.1875,571.5,511.1875,561.5,515.1875,565.5,511.1875" style="stroke: #A80036; stroke-width: 1.0;"/><line style="stroke: #A80036; stroke-width: 1.0; stroke-dasharray: 2.0,2.0;" x1="73.5" x2="567.5" y1="511.1875" y2="511.1875"/><text fill="#000000" font-family="sans-serif" font-size="13" lengthAdjust="spacingAndGlyphs" textLength="262" x="80.5" y="506.2544">{RegistrationSuccessAcknowledgement}</text></g></svg>
