<?xml version="1.0" encoding="UTF-8" standalone="yes"?><svg xmlns="http://www.w3.org/2000/svg" xmlns:xlink="http://www.w3.org/1999/xlink" height="356pt" style="width:644px;height:356px;" version="1.1" viewBox="0 0 644 356" width="644pt"><defs><filter height="300%" id="f1" width="300%" x="-1" y="-1"><feGaussianBlur result="blurOut" stdDeviation="2.0"/><feColorMatrix in="blurOut" result="blurOut2" type="matrix" values="0 0 0 0 0 0 0 0 0 0 0 0 0 0 0 0 0 0 .4 0"/><feOffset dx="4.0" dy="4.0" in="blurOut2" result="blurOut3"/><feBlend in="SourceGraphic" in2="blurOut3" mode="normal"/></filter></defs><g><rect fill="#FFFFFF" filter="url(#f1)" height="138.6641" style="stroke: #A80036; stroke-width: 1.0;" width="10" x="179.5" y="162.7266"/><rect fill="#FFFFFF" filter="url(#f1)" height="67.3984" style="stroke: #A80036; stroke-width: 1.0;" width="10" x="293" y="233.9922"/><rect fill="#FFFFFF" filter="url(#f1)" height="38.2656" style="stroke: #A80036; stroke-width: 1.0;" width="10" x="436" y="263.125"/><rect fill="#DDDDDD" height="300.3906" style="stroke: #A80036; stroke-width: 1.0;" width="225" x="129" y="4"/><text fill="#000000" font-family="sans-serif" font-size="13" font-weight="bold" lengthAdjust="spacingAndGlyphs" textLength="121" x="181" y="16.0669">Source Endpoint</text><rect fill="#DDDDDD" height="300.3906" style="stroke: #A80036; stroke-width: 1.0;" width="170" x="356" y="4"/><text fill="#000000" font-family="sans-serif" font-size="13" font-weight="bold" lengthAdjust="spacingAndGlyphs" textLength="102" x="390" y="16.0669">Sink Endpoint</text><line style="stroke: #A80036; stroke-width: 1.0; stroke-dasharray: 5.0,5.0;" x1="65" x2="65" y1="102.5938" y2="310.3906"/><line style="stroke: #A80036; stroke-width: 1.0; stroke-dasharray: 5.0,5.0;" x1="184" x2="184" y1="102.5938" y2="310.3906"/><line style="stroke: #A80036; stroke-width: 1.0; stroke-dasharray: 5.0,5.0;" x1="298" x2="298" y1="102.5938" y2="310.3906"/><line style="stroke: #A80036; stroke-width: 1.0; stroke-dasharray: 5.0,5.0;" x1="441" x2="441" y1="102.5938" y2="310.3906"/><line style="stroke: #A80036; stroke-width: 1.0; stroke-dasharray: 5.0,5.0;" x1="589" x2="589" y1="102.5938" y2="310.3906"/><text fill="#000000" font-family="sans-serif" font-size="14" font-style="italic" lengthAdjust="spacingAndGlyphs" textLength="109" x="8" y="84">&lt;&lt;Operator&gt;&gt;</text><text fill="#000000" font-family="sans-serif" font-size="14" lengthAdjust="spacingAndGlyphs" textLength="69" x="28" y="100.2969">SourceOp</text><ellipse cx="65.5" cy="13" fill="#FEFECE" filter="url(#f1)" rx="8" ry="8" style="stroke: #A80036; stroke-width: 2.0;"/><path d="M65.5,21 L65.5,48 M52.5,29 L78.5,29 M65.5,48 L52.5,63 M65.5,48 L78.5,63 " fill="#FEFECE" filter="url(#f1)" style="stroke: #A80036; stroke-width: 2.0;"/><rect fill="#FEFECE" filter="url(#f1)" height="30.2969" style="stroke: #A80036; stroke-width: 1.5;" width="99" x="133" y="67.2969"/><text fill="#000000" font-family="sans-serif" font-size="14" lengthAdjust="spacingAndGlyphs" textLength="85" x="140" y="87.292">Flow Control</text><rect fill="#FEFECE" filter="url(#f1)" height="30.2969" style="stroke: #A80036; stroke-width: 1.5;" width="100" x="246" y="67.2969"/><text fill="#000000" font-family="sans-serif" font-size="14" lengthAdjust="spacingAndGlyphs" textLength="86" x="253" y="87.292">Data Service</text><rect fill="#FEFECE" filter="url(#f1)" height="30.2969" style="stroke: #A80036; stroke-width: 1.5;" width="158" x="360" y="67.2969"/><text fill="#000000" font-family="sans-serif" font-size="14" lengthAdjust="spacingAndGlyphs" textLength="144" x="367" y="87.292">Remote Flow Control</text><text fill="#000000" font-family="sans-serif" font-size="14" font-style="italic" lengthAdjust="spacingAndGlyphs" textLength="109" x="532" y="84">&lt;&lt;Operator&gt;&gt;</text><text fill="#000000" font-family="sans-serif" font-size="14" lengthAdjust="spacingAndGlyphs" textLength="49" x="562" y="100.2969">SinkOp</text><ellipse cx="589.5" cy="13" fill="#FEFECE" filter="url(#f1)" rx="8" ry="8" style="stroke: #A80036; stroke-width: 2.0;"/><path d="M589.5,21 L589.5,48 M576.5,29 L602.5,29 M589.5,48 L576.5,63 M589.5,48 L602.5,63 " fill="#FEFECE" filter="url(#f1)" style="stroke: #A80036; stroke-width: 2.0;"/><rect fill="#FFFFFF" filter="url(#f1)" height="138.6641" style="stroke: #A80036; stroke-width: 1.0;" width="10" x="179.5" y="162.7266"/><rect fill="#FFFFFF" filter="url(#f1)" height="67.3984" style="stroke: #A80036; stroke-width: 1.0;" width="10" x="293" y="233.9922"/><rect fill="#FFFFFF" filter="url(#f1)" height="38.2656" style="stroke: #A80036; stroke-width: 1.0;" width="10" x="436" y="263.125"/><polygon fill="#A80036" points="577.5,129.5938,587.5,133.5938,577.5,137.5938,581.5,133.5938" style="stroke: #A80036; stroke-width: 1.0;"/><line style="stroke: #A80036; stroke-width: 1.0;" x1="65.5" x2="583.5" y1="133.5938" y2="133.5938"/><text fill="#000000" font-family="sans-serif" font-size="13" lengthAdjust="spacingAndGlyphs" textLength="155" x="72.5" y="128.6606">notify ConnectionDetails</text><polygon fill="#A80036" points="167.5,158.7266,177.5,162.7266,167.5,166.7266,171.5,162.7266" style="stroke: #A80036; stroke-width: 1.0;"/><line style="stroke: #A80036; stroke-width: 1.0;" x1="65.5" x2="173.5" y1="162.7266" y2="162.7266"/><text fill="#000000" font-family="sans-serif" font-size="13" lengthAdjust="spacingAndGlyphs" textLength="40" x="72.5" y="157.7935">start()</text><line style="stroke: #A80036; stroke-width: 1.0;" x1="189.5" x2="231.5" y1="191.9922" y2="191.9922"/><line style="stroke: #A80036; stroke-width: 1.0;" x1="231.5" x2="231.5" y1="191.9922" y2="204.9922"/><line style="stroke: #A80036; stroke-width: 1.0;" x1="190.5" x2="231.5" y1="204.9922" y2="204.9922"/><polygon fill="#A80036" points="200.5,200.9922,190.5,204.9922,200.5,208.9922,196.5,204.9922" style="stroke: #A80036; stroke-width: 1.0;"/><text fill="#000000" font-family="sans-serif" font-size="13" lengthAdjust="spacingAndGlyphs" textLength="73" x="196.5" y="186.9263">bind socket</text><polygon fill="#A80036" points="281,229.9922,291,233.9922,281,237.9922,285,233.9922" style="stroke: #A80036; stroke-width: 1.0;"/><line style="stroke: #A80036; stroke-width: 1.0;" x1="189.5" x2="287" y1="233.9922" y2="233.9922"/><text fill="#000000" font-family="sans-serif" font-size="13" lengthAdjust="spacingAndGlyphs" textLength="40" x="196.5" y="229.0591">start()</text><polygon fill="#A80036" points="457,259.125,447,263.125,457,267.125,453,263.125" style="stroke: #A80036; stroke-width: 1.0;"/><line style="stroke: #A80036; stroke-width: 1.0;" x1="451" x2="588.5" y1="263.125" y2="263.125"/><text fill="#000000" font-family="sans-serif" font-size="13" lengthAdjust="spacingAndGlyphs" textLength="40" x="463" y="258.1919">start()</text><polygon fill="#A80036" points="200.5,288.2578,190.5,292.2578,200.5,296.2578,196.5,292.2578" style="stroke: #A80036; stroke-width: 1.0;"/><line style="stroke: #A80036; stroke-width: 1.0;" x1="194.5" x2="435" y1="292.2578" y2="292.2578"/><text fill="#000000" font-family="sans-serif" font-size="13" lengthAdjust="spacingAndGlyphs" textLength="51" x="206.5" y="287.3247">connect</text><polygon fill="#DDDDDD" points="388,313.3906,388,355.9844,643,355.9844,643,313.3906,388,313.3906" style="stroke: #000000; stroke-width: 1.0;"/><text fill="#000000" font-family="sans-serif" font-size="14" lengthAdjust="spacingAndGlyphs" textLength="235" x="394" y="331.3857">start() provides ConnectionDetails</text><text fill="#000000" font-family="sans-serif" font-size="14" lengthAdjust="spacingAndGlyphs" textLength="243" x="394" y="347.6826">previously exchanged by Operators</text></g></svg>