<?xml version="1.0" encoding="UTF-8" standalone="yes"?><svg xmlns="http://www.w3.org/2000/svg" xmlns:xlink="http://www.w3.org/1999/xlink" height="219pt" style="width:738px;height:219px;" version="1.1" viewBox="0 0 738 219" width="738pt"><defs><filter height="300%" id="f1" width="300%" x="-1" y="-1"><feGaussianBlur result="blurOut" stdDeviation="2.0"/><feColorMatrix in="blurOut" result="blurOut2" type="matrix" values="0 0 0 0 0 0 0 0 0 0 0 0 0 0 0 0 0 0 .4 0"/><feOffset dx="4.0" dy="4.0" in="blurOut2" result="blurOut3"/><feBlend in="SourceGraphic" in2="blurOut3" mode="normal"/></filter></defs><g><rect fill="#FFFFFF" filter="url(#f1)" height="161" style="stroke: #000000; stroke-width: 2.0;" width="210" x="254" y="24"/><text fill="#000000" font-family="sans-serif" font-size="14" font-weight="bold" lengthAdjust="spacingAndGlyphs" textLength="77" x="320.5" y="38.9951">Init Phase</text><ellipse cx="359.2318" cy="80.2464" fill="#FEFECE" filter="url(#f1)" rx="89.2318" ry="20.2464" style="stroke: #A80036; stroke-width: 1.5;"/><text fill="#000000" font-family="sans-serif" font-size="14" lengthAdjust="spacingAndGlyphs" textLength="152" x="283.2318" y="84.8948">Init CommandChannel</text><ellipse cx="359.1576" cy="151.9315" fill="#FEFECE" filter="url(#f1)" rx="72.6576" ry="16.9315" style="stroke: #A80036; stroke-width: 1.5;"/><text fill="#000000" font-family="sans-serif" font-size="14" lengthAdjust="spacingAndGlyphs" textLength="113" x="302.6576" y="156.5799">Init DataChannel</text><ellipse cx="61" cy="148.2969" fill="#FEFECE" filter="url(#f1)" rx="8" ry="8" style="stroke: #A80036; stroke-width: 2.0;"/><path d="M61,156.2969 L61,183.2969 M48,164.2969 L74,164.2969 M61,183.2969 L48,198.2969 M61,183.2969 L74,198.2969 " fill="#FEFECE" filter="url(#f1)" style="stroke: #A80036; stroke-width: 2.0;"/><text fill="#000000" font-family="sans-serif" font-size="14" lengthAdjust="spacingAndGlyphs" textLength="69" x="26.5" y="218.292">SourceOp</text><text fill="#000000" font-family="sans-serif" font-size="14" font-style="italic" lengthAdjust="spacingAndGlyphs" textLength="109" x="6.5" y="134.9951">&lt;&lt;Operator&gt;&gt;</text><ellipse cx="683" cy="128.2969" fill="#FEFECE" filter="url(#f1)" rx="8" ry="8" style="stroke: #A80036; stroke-width: 2.0;"/><path d="M683,136.2969 L683,163.2969 M670,144.2969 L696,144.2969 M683,163.2969 L670,178.2969 M683,163.2969 L696,178.2969 " fill="#FEFECE" filter="url(#f1)" style="stroke: #A80036; stroke-width: 2.0;"/><text fill="#000000" font-family="sans-serif" font-size="14" lengthAdjust="spacingAndGlyphs" textLength="49" x="658.5" y="198.292">SinkOp</text><text fill="#000000" font-family="sans-serif" font-size="14" font-style="italic" lengthAdjust="spacingAndGlyphs" textLength="109" x="628.5" y="114.9951">&lt;&lt;Operator&gt;&gt;</text><path d="M115.644,183.4698 C152.187,190.6825 201.774,199.3005 246,203 C346.095,211.3729 372.267,214.9369 472,203 C523.906,196.7875 581.52,182.2293 623.251,170.2507 " fill="none" style="stroke: #A80036; stroke-width: 1.0; stroke-dasharray: 7.0,7.0;"/><polygon fill="#A80036" points="628.26,168.8034,618.5032,167.4601,623.4567,170.1919,620.7248,175.1454,628.26,168.8034" style="stroke: #A80036; stroke-width: 1.0;"/><text fill="#000000" font-family="sans-serif" font-size="13" lengthAdjust="spacingAndGlyphs" textLength="182" x="267.5" y="198.0669">exchange ConnectionDetails</text><path d="M115.603,155.3395 C169.582,138.5624 252.312,112.849 305.789,96.228 " fill="none" style="stroke: #A80036; stroke-width: 1.0;"/><text fill="#000000" font-family="sans-serif" font-size="13" lengthAdjust="spacingAndGlyphs" textLength="87" x="147" y="116.0669">&lt;&lt;initiate&gt;&gt;</text><path d="M431.262,91.675 C478.782,99.974 542.482,112.087 598,126 C607.921,128.4863 618.403,131.4521 628.473,134.4761 " fill="none" style="stroke: #A80036; stroke-width: 1.0;"/><text fill="#000000" font-family="sans-serif" font-size="13" lengthAdjust="spacingAndGlyphs" textLength="112" x="483.5" y="98.0669">&lt;&lt;participate&gt;&gt;</text><path d="M431.862,152 C491.361,152 574.575,152 628.381,152 " fill="none" style="stroke: #A80036; stroke-width: 1.0;"/></g></svg>
