<?xml version="1.0" encoding="UTF-8" standalone="yes"?><svg xmlns="http://www.w3.org/2000/svg" xmlns:xlink="http://www.w3.org/1999/xlink" height="502pt" style="width:772px;height:502px;" version="1.1" viewBox="0 0 772 502" width="772pt"><defs><filter height="300%" id="f1" width="300%" x="-1" y="-1"><feGaussianBlur result="blurOut" stdDeviation="2.0"/><feColorMatrix in="blurOut" result="blurOut2" type="matrix" values="0 0 0 0 0 0 0 0 0 0 0 0 0 0 0 0 0 0 .4 0"/><feOffset dx="4.0" dy="4.0" in="blurOut2" result="blurOut3"/><feBlend in="SourceGraphic" in2="blurOut3" mode="normal"/></filter></defs><g><rect fill="#FFFFFF" filter="url(#f1)" height="379.7266" style="stroke: #A80036; stroke-width: 1.0;" width="10" x="63.5" y="112.5938"/><rect fill="#FFFFFF" filter="url(#f1)" height="379.7266" style="stroke: #A80036; stroke-width: 1.0;" width="10" x="243.5" y="112.5938"/><rect fill="#FFFFFF" filter="url(#f1)" height="203.9297" style="stroke: #A80036; stroke-width: 1.0;" width="10" x="248.5" y="250.125"/><rect fill="#FFFFFF" filter="url(#f1)" height="358.7266" style="stroke: #A80036; stroke-width: 1.0;" width="10" x="392.5" y="133.5938"/><rect fill="#FFFFFF" filter="url(#f1)" height="379.7266" style="stroke: #A80036; stroke-width: 1.0;" width="10" x="578.5" y="112.5938"/><rect fill="#DDDDDD" height="491.3203" style="stroke: #A80036; stroke-width: 1.0;" width="300.5" x="4" y="4"/><text fill="#000000" font-family="sans-serif" font-size="13" font-weight="bold" lengthAdjust="spacingAndGlyphs" textLength="121" x="93.75" y="16.0669">Source Endpoint</text><rect fill="#DDDDDD" height="491.3203" style="stroke: #A80036; stroke-width: 1.0;" width="309.5" x="347" y="4"/><text fill="#000000" font-family="sans-serif" font-size="13" font-weight="bold" lengthAdjust="spacingAndGlyphs" textLength="102" x="450.75" y="16.0669">Sink Endpoint</text><line style="stroke: #A80036; stroke-width: 1.0; stroke-dasharray: 5.0,5.0;" x1="68" x2="68" y1="102.5938" y2="501.3203"/><line style="stroke: #A80036; stroke-width: 1.0; stroke-dasharray: 5.0,5.0;" x1="248.5" x2="248.5" y1="102.5938" y2="501.3203"/><line style="stroke: #A80036; stroke-width: 1.0; stroke-dasharray: 5.0,5.0;" x1="397" x2="397" y1="102.5938" y2="501.3203"/><line style="stroke: #A80036; stroke-width: 1.0; stroke-dasharray: 5.0,5.0;" x1="583.5" x2="583.5" y1="102.5938" y2="501.3203"/><line style="stroke: #A80036; stroke-width: 1.0; stroke-dasharray: 5.0,5.0;" x1="719.5" x2="719.5" y1="102.5938" y2="501.3203"/><rect fill="#FEFECE" filter="url(#f1)" height="46.5938" style="stroke: #A80036; stroke-width: 1.5;" width="117" x="8" y="51"/><text fill="#000000" font-family="sans-serif" font-size="14" lengthAdjust="spacingAndGlyphs" textLength="103" x="15" y="70.9951">Source Control</text><text fill="#000000" font-family="sans-serif" font-size="14" lengthAdjust="spacingAndGlyphs" textLength="50" x="41.5" y="87.292">Service</text><rect fill="#FEFECE" filter="url(#f1)" height="30.2969" style="stroke: #A80036; stroke-width: 1.5;" width="100" x="196.5" y="67.2969"/><text fill="#000000" font-family="sans-serif" font-size="14" lengthAdjust="spacingAndGlyphs" textLength="86" x="203.5" y="87.292">Data Service</text><rect fill="#FEFECE" filter="url(#f1)" height="30.2969" style="stroke: #A80036; stroke-width: 1.5;" width="89" x="351" y="67.2969"/><text fill="#000000" font-family="sans-serif" font-size="14" lengthAdjust="spacingAndGlyphs" textLength="75" x="358" y="87.292">Data Client</text><rect fill="#FEFECE" filter="url(#f1)" height="30.2969" style="stroke: #A80036; stroke-width: 1.5;" width="134" x="514.5" y="67.2969"/><text fill="#000000" font-family="sans-serif" font-size="14" lengthAdjust="spacingAndGlyphs" textLength="120" x="521.5" y="87.292">Source Controller</text><text fill="#000000" font-family="sans-serif" font-size="14" font-style="italic" lengthAdjust="spacingAndGlyphs" textLength="109" x="662.5" y="84">&lt;&lt;Operator&gt;&gt;</text><text fill="#000000" font-family="sans-serif" font-size="14" lengthAdjust="spacingAndGlyphs" textLength="49" x="692.5" y="100.2969">SinkOp</text><ellipse cx="720" cy="13" fill="#FEFECE" filter="url(#f1)" rx="8" ry="8" style="stroke: #A80036; stroke-width: 2.0;"/><path d="M720,21 L720,48 M707,29 L733,29 M720,48 L707,63 M720,48 L733,63 " fill="#FEFECE" filter="url(#f1)" style="stroke: #A80036; stroke-width: 2.0;"/><rect fill="#FFFFFF" filter="url(#f1)" height="379.7266" style="stroke: #A80036; stroke-width: 1.0;" width="10" x="63.5" y="112.5938"/><rect fill="#FFFFFF" filter="url(#f1)" height="379.7266" style="stroke: #A80036; stroke-width: 1.0;" width="10" x="243.5" y="112.5938"/><rect fill="#FFFFFF" filter="url(#f1)" height="203.9297" style="stroke: #A80036; stroke-width: 1.0;" width="10" x="248.5" y="250.125"/><rect fill="#FFFFFF" filter="url(#f1)" height="358.7266" style="stroke: #A80036; stroke-width: 1.0;" width="10" x="392.5" y="133.5938"/><rect fill="#FFFFFF" filter="url(#f1)" height="379.7266" style="stroke: #A80036; stroke-width: 1.0;" width="10" x="578.5" y="112.5938"/><polygon fill="#A80036" points="413.5,129.5938,403.5,133.5938,413.5,137.5938,409.5,133.5938" style="stroke: #A80036; stroke-width: 1.0;"/><line style="stroke: #A80036; stroke-width: 1.0;" x1="407.5" x2="719" y1="133.5938" y2="133.5938"/><text fill="#000000" font-family="sans-serif" font-size="13" lengthAdjust="spacingAndGlyphs" textLength="40" x="419.5" y="128.6606">start()</text><polygon fill="#A80036" points="264.5,158.7266,254.5,162.7266,264.5,166.7266,260.5,162.7266" style="stroke: #A80036; stroke-width: 1.0;"/><line style="stroke: #A80036; stroke-width: 1.0;" x1="258.5" x2="391.5" y1="162.7266" y2="162.7266"/><text fill="#000000" font-family="sans-serif" font-size="13" lengthAdjust="spacingAndGlyphs" textLength="51" x="270.5" y="157.7935">connect</text><polygon fill="#A80036" points="566.5,187.8594,576.5,191.8594,566.5,195.8594,570.5,191.8594" style="stroke: #A80036; stroke-width: 1.0;"/><line style="stroke: #A80036; stroke-width: 1.0;" x1="402.5" x2="572.5" y1="191.8594" y2="191.8594"/><text fill="#000000" font-family="sans-serif" font-size="13" lengthAdjust="spacingAndGlyphs" textLength="126" x="409.5" y="186.9263">request registration</text><polygon fill="#A80036" points="84.5,216.9922,74.5,220.9922,84.5,224.9922,80.5,220.9922" style="stroke: #A80036; stroke-width: 1.0;"/><line style="stroke: #A80036; stroke-width: 1.0;" x1="78.5" x2="577.5" y1="220.9922" y2="220.9922"/><text fill="#000000" font-family="sans-serif" font-size="13" lengthAdjust="spacingAndGlyphs" textLength="144" x="90.5" y="216.0591">{RegistrationRequest}</text><polygon fill="#A80036" points="236.5,246.125,246.5,250.125,236.5,254.125,240.5,250.125" style="stroke: #A80036; stroke-width: 1.0;"/><line style="stroke: #A80036; stroke-width: 1.0;" x1="73.5" x2="242.5" y1="250.125" y2="250.125"/><text fill="#000000" font-family="sans-serif" font-size="13" lengthAdjust="spacingAndGlyphs" textLength="146" x="80.5" y="245.1919">call for synchronisation</text><polygon fill="#A80036" points="380.5,275.2578,390.5,279.2578,380.5,283.2578,384.5,279.2578" style="stroke: #A80036; stroke-width: 1.0;"/><line style="stroke: #A80036; stroke-width: 1.0;" x1="258.5" x2="386.5" y1="279.2578" y2="279.2578"/><text fill="#000000" font-family="sans-serif" font-size="13" lengthAdjust="spacingAndGlyphs" textLength="110" x="265.5" y="274.3247">{Sychronisation}</text><polygon fill="#A80036" points="566.5,304.3906,576.5,308.3906,566.5,312.3906,570.5,308.3906" style="stroke: #A80036; stroke-width: 1.0;"/><line style="stroke: #A80036; stroke-width: 1.0; stroke-dasharray: 2.0,2.0;" x1="73.5" x2="572.5" y1="308.3906" y2="308.3906"/><text fill="#000000" font-family="sans-serif" font-size="13" lengthAdjust="spacingAndGlyphs" textLength="261" x="80.5" y="303.4575">{RegistrationRequestAcknowledgement}</text><polygon fill="#A80036" points="413.5,333.5234,403.5,337.5234,413.5,341.5234,409.5,337.5234" style="stroke: #A80036; stroke-width: 1.0;"/><line style="stroke: #A80036; stroke-width: 1.0;" x1="407.5" x2="577.5" y1="337.5234" y2="337.5234"/><text fill="#000000" font-family="sans-serif" font-size="13" lengthAdjust="spacingAndGlyphs" textLength="142" x="419.5" y="332.5903">registration requested</text><polygon fill="#A80036" points="566.5,362.6563,576.5,366.6563,566.5,370.6563,570.5,366.6563" style="stroke: #A80036; stroke-width: 1.0;"/><line style="stroke: #A80036; stroke-width: 1.0; stroke-dasharray: 2.0,2.0;" x1="402.5" x2="572.5" y1="366.6563" y2="366.6563"/><text fill="#000000" font-family="sans-serif" font-size="13" lengthAdjust="spacingAndGlyphs" textLength="152" x="409.5" y="361.7231">confirm synchronisation</text><polygon fill="#A80036" points="84.5,391.7891,74.5,395.7891,84.5,399.7891,80.5,395.7891" style="stroke: #A80036; stroke-width: 1.0;"/><line style="stroke: #A80036; stroke-width: 1.0;" x1="78.5" x2="577.5" y1="395.7891" y2="395.7891"/><text fill="#000000" font-family="sans-serif" font-size="13" lengthAdjust="spacingAndGlyphs" textLength="145" x="90.5" y="390.856">{RegistrationSuccess}</text><polygon fill="#A80036" points="380.5,420.9219,390.5,424.9219,380.5,428.9219,384.5,424.9219" style="stroke: #A80036; stroke-width: 1.0;"/><line style="stroke: #A80036; stroke-width: 1.0;" x1="258.5" x2="386.5" y1="424.9219" y2="424.9219"/><text fill="#000000" font-family="sans-serif" font-size="13" lengthAdjust="spacingAndGlyphs" textLength="110" x="265.5" y="419.9888">{Sychronisation}</text><polygon fill="#A80036" points="231.5,450.0547,241.5,454.0547,231.5,458.0547,235.5,454.0547" style="stroke: #A80036; stroke-width: 1.0;"/><line style="stroke: #A80036; stroke-width: 1.0;" x1="73.5" x2="237.5" y1="454.0547" y2="454.0547"/><text fill="#000000" font-family="sans-serif" font-size="13" lengthAdjust="spacingAndGlyphs" textLength="132" x="80.5" y="449.1216">stop synchronisation</text><polygon fill="#A80036" points="566.5,479.1875,576.5,483.1875,566.5,487.1875,570.5,483.1875" style="stroke: #A80036; stroke-width: 1.0;"/><line style="stroke: #A80036; stroke-width: 1.0; stroke-dasharray: 2.0,2.0;" x1="73.5" x2="572.5" y1="483.1875" y2="483.1875"/><text fill="#000000" font-family="sans-serif" font-size="13" lengthAdjust="spacingAndGlyphs" textLength="262" x="80.5" y="478.2544">{RegistrationSuccessAcknowledgement}</text></g></svg>
