<?xml version="1.0" encoding="UTF-8" standalone="yes"?><svg xmlns="http://www.w3.org/2000/svg" xmlns:xlink="http://www.w3.org/1999/xlink" height="327pt" style="width:638px;height:327px;" version="1.1" viewBox="0 0 638 327" width="638pt"><defs><filter height="300%" id="f1" width="300%" x="-1" y="-1"><feGaussianBlur result="blurOut" stdDeviation="2.0"/><feColorMatrix in="blurOut" result="blurOut2" type="matrix" values="0 0 0 0 0 0 0 0 0 0 0 0 0 0 0 0 0 0 .4 0"/><feOffset dx="4.0" dy="4.0" in="blurOut2" result="blurOut3"/><feBlend in="SourceGraphic" in2="blurOut3" mode="normal"/></filter></defs><g><rect fill="#FFFFFF" filter="url(#f1)" height="138.6641" style="stroke: #A80036; stroke-width: 1.0;" width="10" x="188.5" y="133.5938"/><rect fill="#FFFFFF" filter="url(#f1)" height="67.3984" style="stroke: #A80036; stroke-width: 1.0;" width="10" x="311" y="204.8594"/><rect fill="#FFFFFF" filter="url(#f1)" height="38.2656" style="stroke: #A80036; stroke-width: 1.0;" width="10" x="442" y="233.9922"/><rect fill="#DDDDDD" height="271.2578" style="stroke: #A80036; stroke-width: 1.0;" width="243" x="129" y="4"/><text fill="#000000" font-family="sans-serif" font-size="13" font-weight="bold" lengthAdjust="spacingAndGlyphs" textLength="121" x="190" y="16.0669">Source Endpoint</text><rect fill="#DDDDDD" height="271.2578" style="stroke: #A80036; stroke-width: 1.0;" width="146" x="374" y="4"/><text fill="#000000" font-family="sans-serif" font-size="13" font-weight="bold" lengthAdjust="spacingAndGlyphs" textLength="102" x="396" y="16.0669">Sink Endpoint</text><line style="stroke: #A80036; stroke-width: 1.0; stroke-dasharray: 5.0,5.0;" x1="65" x2="65" y1="102.5938" y2="281.2578"/><line style="stroke: #A80036; stroke-width: 1.0; stroke-dasharray: 5.0,5.0;" x1="193" x2="193" y1="102.5938" y2="281.2578"/><line style="stroke: #A80036; stroke-width: 1.0; stroke-dasharray: 5.0,5.0;" x1="316" x2="316" y1="102.5938" y2="281.2578"/><line style="stroke: #A80036; stroke-width: 1.0; stroke-dasharray: 5.0,5.0;" x1="447" x2="447" y1="102.5938" y2="281.2578"/><line style="stroke: #A80036; stroke-width: 1.0; stroke-dasharray: 5.0,5.0;" x1="583" x2="583" y1="102.5938" y2="281.2578"/><text fill="#000000" font-family="sans-serif" font-size="14" font-style="italic" lengthAdjust="spacingAndGlyphs" textLength="109" x="8" y="84">&lt;&lt;Operator&gt;&gt;</text><text fill="#000000" font-family="sans-serif" font-size="14" lengthAdjust="spacingAndGlyphs" textLength="69" x="28" y="100.2969">SourceOp</text><ellipse cx="65.5" cy="13" fill="#FEFECE" filter="url(#f1)" rx="8" ry="8" style="stroke: #A80036; stroke-width: 2.0;"/><path d="M65.5,21 L65.5,48 M52.5,29 L78.5,29 M65.5,48 L52.5,63 M65.5,48 L78.5,63 " fill="#FEFECE" filter="url(#f1)" style="stroke: #A80036; stroke-width: 2.0;"/><rect fill="#FEFECE" filter="url(#f1)" height="46.5938" style="stroke: #A80036; stroke-width: 1.5;" width="117" x="133" y="51"/><text fill="#000000" font-family="sans-serif" font-size="14" lengthAdjust="spacingAndGlyphs" textLength="103" x="140" y="70.9951">Source Control</text><text fill="#000000" font-family="sans-serif" font-size="14" lengthAdjust="spacingAndGlyphs" textLength="50" x="166.5" y="87.292">Service</text><rect fill="#FEFECE" filter="url(#f1)" height="30.2969" style="stroke: #A80036; stroke-width: 1.5;" width="100" x="264" y="67.2969"/><text fill="#000000" font-family="sans-serif" font-size="14" lengthAdjust="spacingAndGlyphs" textLength="86" x="271" y="87.292">Data Service</text><rect fill="#FEFECE" filter="url(#f1)" height="30.2969" style="stroke: #A80036; stroke-width: 1.5;" width="134" x="378" y="67.2969"/><text fill="#000000" font-family="sans-serif" font-size="14" lengthAdjust="spacingAndGlyphs" textLength="120" x="385" y="87.292">Source Controller</text><text fill="#000000" font-family="sans-serif" font-size="14" font-style="italic" lengthAdjust="spacingAndGlyphs" textLength="109" x="526" y="84">&lt;&lt;Operator&gt;&gt;</text><text fill="#000000" font-family="sans-serif" font-size="14" lengthAdjust="spacingAndGlyphs" textLength="49" x="556" y="100.2969">SinkOp</text><ellipse cx="583.5" cy="13" fill="#FEFECE" filter="url(#f1)" rx="8" ry="8" style="stroke: #A80036; stroke-width: 2.0;"/><path d="M583.5,21 L583.5,48 M570.5,29 L596.5,29 M583.5,48 L570.5,63 M583.5,48 L596.5,63 " fill="#FEFECE" filter="url(#f1)" style="stroke: #A80036; stroke-width: 2.0;"/><rect fill="#FFFFFF" filter="url(#f1)" height="138.6641" style="stroke: #A80036; stroke-width: 1.0;" width="10" x="188.5" y="133.5938"/><rect fill="#FFFFFF" filter="url(#f1)" height="67.3984" style="stroke: #A80036; stroke-width: 1.0;" width="10" x="311" y="204.8594"/><rect fill="#FFFFFF" filter="url(#f1)" height="38.2656" style="stroke: #A80036; stroke-width: 1.0;" width="10" x="442" y="233.9922"/><polygon fill="#A80036" points="176.5,129.5938,186.5,133.5938,176.5,137.5938,180.5,133.5938" style="stroke: #A80036; stroke-width: 1.0;"/><line style="stroke: #A80036; stroke-width: 1.0;" x1="65.5" x2="182.5" y1="133.5938" y2="133.5938"/><text fill="#000000" font-family="sans-serif" font-size="13" lengthAdjust="spacingAndGlyphs" textLength="40" x="72.5" y="128.6606">start()</text><line style="stroke: #A80036; stroke-width: 1.0;" x1="198.5" x2="240.5" y1="162.8594" y2="162.8594"/><line style="stroke: #A80036; stroke-width: 1.0;" x1="240.5" x2="240.5" y1="162.8594" y2="175.8594"/><line style="stroke: #A80036; stroke-width: 1.0;" x1="199.5" x2="240.5" y1="175.8594" y2="175.8594"/><polygon fill="#A80036" points="209.5,171.8594,199.5,175.8594,209.5,179.8594,205.5,175.8594" style="stroke: #A80036; stroke-width: 1.0;"/><text fill="#000000" font-family="sans-serif" font-size="13" lengthAdjust="spacingAndGlyphs" textLength="73" x="205.5" y="157.7935">bind socket</text><polygon fill="#A80036" points="299,200.8594,309,204.8594,299,208.8594,303,204.8594" style="stroke: #A80036; stroke-width: 1.0;"/><line style="stroke: #A80036; stroke-width: 1.0;" x1="198.5" x2="305" y1="204.8594" y2="204.8594"/><text fill="#000000" font-family="sans-serif" font-size="13" lengthAdjust="spacingAndGlyphs" textLength="40" x="205.5" y="199.9263">start()</text><polygon fill="#A80036" points="463,229.9922,453,233.9922,463,237.9922,459,233.9922" style="stroke: #A80036; stroke-width: 1.0;"/><line style="stroke: #A80036; stroke-width: 1.0;" x1="457" x2="582.5" y1="233.9922" y2="233.9922"/><text fill="#000000" font-family="sans-serif" font-size="13" lengthAdjust="spacingAndGlyphs" textLength="40" x="469" y="229.0591">start()</text><polygon fill="#A80036" points="209.5,259.125,199.5,263.125,209.5,267.125,205.5,263.125" style="stroke: #A80036; stroke-width: 1.0;"/><line style="stroke: #A80036; stroke-width: 1.0;" x1="203.5" x2="441" y1="263.125" y2="263.125"/><text fill="#000000" font-family="sans-serif" font-size="13" lengthAdjust="spacingAndGlyphs" textLength="51" x="215.5" y="258.1919">connect</text><polygon fill="#DDDDDD" points="382,284.2578,382,326.8516,637,326.8516,637,284.2578,382,284.2578" style="stroke: #000000; stroke-width: 1.0;"/><text fill="#000000" font-family="sans-serif" font-size="14" lengthAdjust="spacingAndGlyphs" textLength="235" x="388" y="302.2529">start() provides ConnectionDetails</text><text fill="#000000" font-family="sans-serif" font-size="14" lengthAdjust="spacingAndGlyphs" textLength="243" x="388" y="318.5498">previously exchanged by Operators</text></g></svg>
