<?xml version="1.0" encoding="UTF-8" standalone="yes"?><svg xmlns="http://www.w3.org/2000/svg" xmlns:xlink="http://www.w3.org/1999/xlink" height="474pt" style="width:657px;height:474px;" version="1.1" viewBox="0 0 657 474" width="657pt"><defs><filter height="300%" id="f1" width="300%" x="-1" y="-1"><feGaussianBlur result="blurOut" stdDeviation="2.0"/><feColorMatrix in="blurOut" result="blurOut2" type="matrix" values="0 0 0 0 0 0 0 0 0 0 0 0 0 0 0 0 0 0 .4 0"/><feOffset dx="4.0" dy="4.0" in="blurOut2" result="blurOut3"/><feBlend in="SourceGraphic" in2="blurOut3" mode="normal"/></filter></defs><g><rect fill="#FFFFFF" filter="url(#f1)" height="379.7266" style="stroke: #A80036; stroke-width: 1.0;" width="10" x="63.5" y="84.7266"/><rect fill="#FFFFFF" filter="url(#f1)" height="379.7266" style="stroke: #A80036; stroke-width: 1.0;" width="10" x="243.5" y="84.7266"/><rect fill="#FFFFFF" filter="url(#f1)" height="203.9297" style="stroke: #A80036; stroke-width: 1.0;" width="10" x="248.5" y="222.2578"/><rect fill="#FFFFFF" filter="url(#f1)" height="358.7266" style="stroke: #A80036; stroke-width: 1.0;" width="10" x="392.5" y="105.7266"/><rect fill="#FFFFFF" filter="url(#f1)" height="379.7266" style="stroke: #A80036; stroke-width: 1.0;" width="10" x="578.5" y="84.7266"/><rect fill="#DDDDDD" height="463.4531" style="stroke: #A80036; stroke-width: 1.0;" width="300.5" x="4" y="4"/><text fill="#000000" font-family="sans-serif" font-size="13" font-weight="bold" lengthAdjust="spacingAndGlyphs" textLength="121" x="93.75" y="16.0669">Source Endpoint</text><rect fill="#DDDDDD" height="463.4531" style="stroke: #A80036; stroke-width: 1.0;" width="309.5" x="347" y="4"/><text fill="#000000" font-family="sans-serif" font-size="13" font-weight="bold" lengthAdjust="spacingAndGlyphs" textLength="102" x="450.75" y="16.0669">Sink Endpoint</text><line style="stroke: #A80036; stroke-width: 1.0; stroke-dasharray: 5.0,5.0;" x1="68" x2="68" y1="74.7266" y2="473.4531"/><line style="stroke: #A80036; stroke-width: 1.0; stroke-dasharray: 5.0,5.0;" x1="248.5" x2="248.5" y1="74.7266" y2="473.4531"/><line style="stroke: #A80036; stroke-width: 1.0; stroke-dasharray: 5.0,5.0;" x1="397" x2="397" y1="74.7266" y2="473.4531"/><line style="stroke: #A80036; stroke-width: 1.0; stroke-dasharray: 5.0,5.0;" x1="583.5" x2="583.5" y1="74.7266" y2="473.4531"/><rect fill="#FEFECE" filter="url(#f1)" height="46.5938" style="stroke: #A80036; stroke-width: 1.5;" width="117" x="8" y="23.1328"/><text fill="#000000" font-family="sans-serif" font-size="14" lengthAdjust="spacingAndGlyphs" textLength="103" x="15" y="43.1279">Source Control</text><text fill="#000000" font-family="sans-serif" font-size="14" lengthAdjust="spacingAndGlyphs" textLength="50" x="41.5" y="59.4248">Service</text><rect fill="#FEFECE" filter="url(#f1)" height="30.2969" style="stroke: #A80036; stroke-width: 1.5;" width="100" x="196.5" y="39.4297"/><text fill="#000000" font-family="sans-serif" font-size="14" lengthAdjust="spacingAndGlyphs" textLength="86" x="203.5" y="59.4248">Data Service</text><rect fill="#FEFECE" filter="url(#f1)" height="30.2969" style="stroke: #A80036; stroke-width: 1.5;" width="89" x="351" y="39.4297"/><text fill="#000000" font-family="sans-serif" font-size="14" lengthAdjust="spacingAndGlyphs" textLength="75" x="358" y="59.4248">Data Client</text><rect fill="#FEFECE" filter="url(#f1)" height="30.2969" style="stroke: #A80036; stroke-width: 1.5;" width="134" x="514.5" y="39.4297"/><text fill="#000000" font-family="sans-serif" font-size="14" lengthAdjust="spacingAndGlyphs" textLength="120" x="521.5" y="59.4248">Source Controller</text><rect fill="#FFFFFF" filter="url(#f1)" height="379.7266" style="stroke: #A80036; stroke-width: 1.0;" width="10" x="63.5" y="84.7266"/><rect fill="#FFFFFF" filter="url(#f1)" height="379.7266" style="stroke: #A80036; stroke-width: 1.0;" width="10" x="243.5" y="84.7266"/><rect fill="#FFFFFF" filter="url(#f1)" height="203.9297" style="stroke: #A80036; stroke-width: 1.0;" width="10" x="248.5" y="222.2578"/><rect fill="#FFFFFF" filter="url(#f1)" height="358.7266" style="stroke: #A80036; stroke-width: 1.0;" width="10" x="392.5" y="105.7266"/><rect fill="#FFFFFF" filter="url(#f1)" height="379.7266" style="stroke: #A80036; stroke-width: 1.0;" width="10" x="578.5" y="84.7266"/><polygon fill="#A80036" points="413.5,101.7266,403.5,105.7266,413.5,109.7266,409.5,105.7266" style="stroke: #A80036; stroke-width: 1.0;"/><line style="stroke: #A80036; stroke-width: 1.0;" x1="407.5" x2="577.5" y1="105.7266" y2="105.7266"/><text fill="#000000" font-family="sans-serif" font-size="13" lengthAdjust="spacingAndGlyphs" textLength="30" x="419.5" y="100.7935">start</text><polygon fill="#A80036" points="264.5,130.8594,254.5,134.8594,264.5,138.8594,260.5,134.8594" style="stroke: #A80036; stroke-width: 1.0;"/><line style="stroke: #A80036; stroke-width: 1.0;" x1="258.5" x2="391.5" y1="134.8594" y2="134.8594"/><text fill="#000000" font-family="sans-serif" font-size="13" lengthAdjust="spacingAndGlyphs" textLength="51" x="270.5" y="129.9263">connect</text><polygon fill="#A80036" points="566.5,159.9922,576.5,163.9922,566.5,167.9922,570.5,163.9922" style="stroke: #A80036; stroke-width: 1.0;"/><line style="stroke: #A80036; stroke-width: 1.0;" x1="402.5" x2="572.5" y1="163.9922" y2="163.9922"/><text fill="#000000" font-family="sans-serif" font-size="13" lengthAdjust="spacingAndGlyphs" textLength="126" x="409.5" y="159.0591">request registration</text><polygon fill="#A80036" points="84.5,189.125,74.5,193.125,84.5,197.125,80.5,193.125" style="stroke: #A80036; stroke-width: 1.0;"/><line style="stroke: #A80036; stroke-width: 1.0;" x1="78.5" x2="577.5" y1="193.125" y2="193.125"/><text fill="#000000" font-family="sans-serif" font-size="13" lengthAdjust="spacingAndGlyphs" textLength="144" x="90.5" y="188.1919">{RegistrationRequest}</text><polygon fill="#A80036" points="236.5,218.2578,246.5,222.2578,236.5,226.2578,240.5,222.2578" style="stroke: #A80036; stroke-width: 1.0;"/><line style="stroke: #A80036; stroke-width: 1.0;" x1="73.5" x2="242.5" y1="222.2578" y2="222.2578"/><text fill="#000000" font-family="sans-serif" font-size="13" lengthAdjust="spacingAndGlyphs" textLength="146" x="80.5" y="217.3247">call for synchronisation</text><polygon fill="#A80036" points="380.5,247.3906,390.5,251.3906,380.5,255.3906,384.5,251.3906" style="stroke: #A80036; stroke-width: 1.0;"/><line style="stroke: #A80036; stroke-width: 1.0;" x1="258.5" x2="386.5" y1="251.3906" y2="251.3906"/><text fill="#000000" font-family="sans-serif" font-size="13" lengthAdjust="spacingAndGlyphs" textLength="110" x="265.5" y="246.4575">{Sychronisation}</text><polygon fill="#A80036" points="566.5,276.5234,576.5,280.5234,566.5,284.5234,570.5,280.5234" style="stroke: #A80036; stroke-width: 1.0;"/><line style="stroke: #A80036; stroke-width: 1.0; stroke-dasharray: 2.0,2.0;" x1="73.5" x2="572.5" y1="280.5234" y2="280.5234"/><text fill="#000000" font-family="sans-serif" font-size="13" lengthAdjust="spacingAndGlyphs" textLength="261" x="80.5" y="275.5903">{RegistrationRequestAcknowledgement}</text><polygon fill="#A80036" points="413.5,305.6563,403.5,309.6563,413.5,313.6563,409.5,309.6563" style="stroke: #A80036; stroke-width: 1.0;"/><line style="stroke: #A80036; stroke-width: 1.0;" x1="407.5" x2="577.5" y1="309.6563" y2="309.6563"/><text fill="#000000" font-family="sans-serif" font-size="13" lengthAdjust="spacingAndGlyphs" textLength="142" x="419.5" y="304.7231">registration requested</text><polygon fill="#A80036" points="566.5,334.7891,576.5,338.7891,566.5,342.7891,570.5,338.7891" style="stroke: #A80036; stroke-width: 1.0;"/><line style="stroke: #A80036; stroke-width: 1.0; stroke-dasharray: 2.0,2.0;" x1="402.5" x2="572.5" y1="338.7891" y2="338.7891"/><text fill="#000000" font-family="sans-serif" font-size="13" lengthAdjust="spacingAndGlyphs" textLength="152" x="409.5" y="333.856">confirm synchronisation</text><polygon fill="#A80036" points="84.5,363.9219,74.5,367.9219,84.5,371.9219,80.5,367.9219" style="stroke: #A80036; stroke-width: 1.0;"/><line style="stroke: #A80036; stroke-width: 1.0;" x1="78.5" x2="577.5" y1="367.9219" y2="367.9219"/><text fill="#000000" font-family="sans-serif" font-size="13" lengthAdjust="spacingAndGlyphs" textLength="145" x="90.5" y="362.9888">{RegistrationSuccess}</text><polygon fill="#A80036" points="380.5,393.0547,390.5,397.0547,380.5,401.0547,384.5,397.0547" style="stroke: #A80036; stroke-width: 1.0;"/><line style="stroke: #A80036; stroke-width: 1.0;" x1="258.5" x2="386.5" y1="397.0547" y2="397.0547"/><text fill="#000000" font-family="sans-serif" font-size="13" lengthAdjust="spacingAndGlyphs" textLength="110" x="265.5" y="392.1216">{Sychronisation}</text><polygon fill="#A80036" points="231.5,422.1875,241.5,426.1875,231.5,430.1875,235.5,426.1875" style="stroke: #A80036; stroke-width: 1.0;"/><line style="stroke: #A80036; stroke-width: 1.0;" x1="73.5" x2="237.5" y1="426.1875" y2="426.1875"/><text fill="#000000" font-family="sans-serif" font-size="13" lengthAdjust="spacingAndGlyphs" textLength="132" x="80.5" y="421.2544">stop synchronisation</text><polygon fill="#A80036" points="566.5,451.3203,576.5,455.3203,566.5,459.3203,570.5,455.3203" style="stroke: #A80036; stroke-width: 1.0;"/><line style="stroke: #A80036; stroke-width: 1.0; stroke-dasharray: 2.0,2.0;" x1="73.5" x2="572.5" y1="455.3203" y2="455.3203"/><text fill="#000000" font-family="sans-serif" font-size="13" lengthAdjust="spacingAndGlyphs" textLength="262" x="80.5" y="450.3872">{RegistrationSuccessAcknowledgement}</text></g></svg>