<?xml version="1.0" encoding="UTF-8" standalone="yes"?><svg xmlns="http://www.w3.org/2000/svg" xmlns:xlink="http://www.w3.org/1999/xlink" height="242pt" style="width:406px;height:242px;" version="1.1" viewBox="0 0 406 242" width="406pt"><defs><filter height="300%" id="f1" width="300%" x="-1" y="-1"><feGaussianBlur result="blurOut" stdDeviation="2.0"/><feColorMatrix in="blurOut" result="blurOut2" type="matrix" values="0 0 0 0 0 0 0 0 0 0 0 0 0 0 0 0 0 0 .4 0"/><feOffset dx="4.0" dy="4.0" in="blurOut2" result="blurOut3"/><feBlend in="SourceGraphic" in2="blurOut3" mode="normal"/></filter></defs><g><ellipse cx="78.5" cy="20" fill="#000000" filter="url(#f1)" rx="10" ry="10" style="stroke: none; stroke-width: 1.0;"/><rect fill="#FEFECE" filter="url(#f1)" height="33.9688" rx="12.5" ry="12.5" style="stroke: #A80036; stroke-width: 1.5;" width="82" x="37.5" y="50"/><text fill="#000000" font-family="sans-serif" font-size="12" lengthAdjust="spacingAndGlyphs" textLength="62" x="47.5" y="71.1387">Init Phase</text><polygon fill="#FBFB77" filter="url(#f1)" points="156,100.8203,156,141.0859,397,141.0859,397,110.8203,387,100.8203,156,100.8203" style="stroke: #A80036; stroke-width: 1.0;"/><polygon fill="#FBFB77" points="156,100.8203,156,116.9531,136,120.9531,156,124.9531,156,141.0859,397,141.0859,397,110.8203,387,100.8203,156,100.8203" style="stroke: #A80036; stroke-width: 1.0;"/><line style="stroke: #A80036; stroke-width: 1.0;" x1="387" x2="387" y1="100.8203" y2="110.8203"/><line style="stroke: #A80036; stroke-width: 1.0;" x1="387" x2="397" y1="110.8203" y2="110.8203"/><text fill="#000000" font-family="sans-serif" font-size="13" lengthAdjust="spacingAndGlyphs" textLength="132" x="162" y="117.8872">long running activity,</text><text fill="#000000" font-family="sans-serif" font-size="13" lengthAdjust="spacingAndGlyphs" textLength="220" x="162" y="133.02">process requires signal to proceed</text><rect fill="#FEFECE" filter="url(#f1)" height="33.9688" rx="12.5" ry="12.5" style="stroke: #A80036; stroke-width: 1.5;" width="115" x="21" y="103.9688"/><text fill="#000000" font-family="sans-serif" font-size="12" lengthAdjust="spacingAndGlyphs" textLength="95" x="31" y="125.1074">Transfer Phase</text><rect fill="#FEFECE" filter="url(#f1)" height="33.9688" rx="12.5" ry="12.5" style="stroke: #A80036; stroke-width: 1.5;" width="137" x="10" y="161.0859"/><text fill="#000000" font-family="sans-serif" font-size="12" lengthAdjust="spacingAndGlyphs" textLength="117" x="20" y="182.2246">Termination Phase</text><ellipse cx="78.5" cy="225.0547" fill="none" filter="url(#f1)" rx="10" ry="10" style="stroke: #000000; stroke-width: 1.0;"/><ellipse cx="79" cy="225.5547" fill="#000000" filter="url(#f1)" rx="6" ry="6" style="stroke: none; stroke-width: 1.0;"/><line style="stroke: #A80036; stroke-width: 1.5;" x1="78.5" x2="78.5" y1="30" y2="50"/><polygon fill="#A80036" points="74.5,40,78.5,50,82.5,40,78.5,44" style="stroke: #A80036; stroke-width: 1.0;"/><line style="stroke: #A80036; stroke-width: 1.5;" x1="78.5" x2="78.5" y1="83.9688" y2="103.9688"/><polygon fill="#A80036" points="74.5,93.9688,78.5,103.9688,82.5,93.9688,78.5,97.9688" style="stroke: #A80036; stroke-width: 1.0;"/><line style="stroke: #A80036; stroke-width: 1.5;" x1="78.5" x2="78.5" y1="137.9375" y2="161.0859"/><polygon fill="#A80036" points="74.5,151.0859,78.5,161.0859,82.5,151.0859,78.5,155.0859" style="stroke: #A80036; stroke-width: 1.0;"/><line style="stroke: #A80036; stroke-width: 1.5;" x1="78.5" x2="78.5" y1="195.0547" y2="215.0547"/><polygon fill="#A80036" points="74.5,205.0547,78.5,215.0547,82.5,205.0547,78.5,209.0547" style="stroke: #A80036; stroke-width: 1.0;"/></g></svg>
