<?xml version="1.0" encoding="UTF-8" standalone="yes"?><svg xmlns="http://www.w3.org/2000/svg" xmlns:xlink="http://www.w3.org/1999/xlink" height="564pt" style="width:1115px;height:564px;" version="1.1" viewBox="0 0 1115 564" width="1115pt"><defs><filter height="300%" id="f1" width="300%" x="-1" y="-1"><feGaussianBlur result="blurOut" stdDeviation="2.0"/><feColorMatrix in="blurOut" result="blurOut2" type="matrix" values="0 0 0 0 0 0 0 0 0 0 0 0 0 0 0 0 0 0 .4 0"/><feOffset dx="4.0" dy="4.0" in="blurOut2" result="blurOut3"/><feBlend in="SourceGraphic" in2="blurOut3" mode="normal"/></filter></defs><g><rect fill="#FFFFFF" filter="url(#f1)" height="392.1875" style="stroke: #A80036; stroke-width: 1.0;" width="10" x="448" y="162.7266"/><rect fill="#FFFFFF" filter="url(#f1)" height="442.3203" style="stroke: #A80036; stroke-width: 1.0;" width="10" x="615" y="112.5938"/><rect fill="#FFFFFF" filter="url(#f1)" height="303.7891" style="stroke: #A80036; stroke-width: 1.0;" width="10" x="620" y="250.125"/><rect fill="#FFFFFF" filter="url(#f1)" height="181.125" style="stroke: #A80036; stroke-width: 1.0;" width="10" x="804.5" y="313.3906"/><rect fill="#FFFFFF" filter="url(#f1)" height="442.3203" style="stroke: #A80036; stroke-width: 1.0;" width="10" x="916" y="112.5938"/><rect fill="#FFFFFF" filter="url(#f1)" height="281.6563" style="stroke: #000000; stroke-width: 2.0;" width="845.5" x="261" y="265.2578"/><rect fill="#FEFECE" filter="url(#f1)" height="46.5938" style="stroke: #A80036; stroke-width: 1.5;" width="77" x="769" y="282.3906"/><text fill="#000000" font-family="sans-serif" font-size="14" lengthAdjust="spacingAndGlyphs" textLength="59" x="778" y="302.3857">File Data</text><text fill="#000000" font-family="sans-serif" font-size="14" lengthAdjust="spacingAndGlyphs" textLength="63" x="776" y="318.6826">Message</text><rect fill="#DDDDDD" height="553.9141" style="stroke: #A80036; stroke-width: 1.0;" width="445" x="409" y="4"/><text fill="#000000" font-family="sans-serif" font-size="13" font-weight="bold" lengthAdjust="spacingAndGlyphs" textLength="121" x="571" y="16.0669">Source Endpoint</text><rect fill="#DDDDDD" height="553.9141" style="stroke: #A80036; stroke-width: 1.0;" width="108" x="867" y="4"/><text fill="#000000" font-family="sans-serif" font-size="13" font-weight="bold" lengthAdjust="spacingAndGlyphs" textLength="102" x="870" y="16.0669">Sink Endpoint</text><line style="stroke: #A80036; stroke-width: 1.0; stroke-dasharray: 5.0,5.0;" x1="65" x2="65" y1="102.5938" y2="563.9141"/><line style="stroke: #A80036; stroke-width: 1.0; stroke-dasharray: 5.0,5.0;" x1="197" x2="197" y1="102.5938" y2="563.9141"/><line style="stroke: #A80036; stroke-width: 1.0; stroke-dasharray: 5.0,5.0;" x1="322" x2="322" y1="102.5938" y2="563.9141"/><line style="stroke: #A80036; stroke-width: 1.0; stroke-dasharray: 5.0,5.0;" x1="453" x2="453" y1="102.5938" y2="563.9141"/><line style="stroke: #A80036; stroke-width: 1.0; stroke-dasharray: 5.0,5.0;" x1="620" x2="620" y1="102.5938" y2="563.9141"/><line style="stroke: #A80036; stroke-width: 1.0; stroke-dasharray: 5.0,5.0;" x1="809" x2="809" y1="323.1875" y2="563.9141"/><line style="stroke: #A80036; stroke-width: 1.0; stroke-dasharray: 5.0,5.0;" x1="920.5" x2="920.5" y1="102.5938" y2="563.9141"/><line style="stroke: #A80036; stroke-width: 1.0; stroke-dasharray: 5.0,5.0;" x1="1055.5" x2="1055.5" y1="102.5938" y2="563.9141"/><text fill="#000000" font-family="sans-serif" font-size="14" font-style="italic" lengthAdjust="spacingAndGlyphs" textLength="109" x="8" y="84">&lt;&lt;Operator&gt;&gt;</text><text fill="#000000" font-family="sans-serif" font-size="14" lengthAdjust="spacingAndGlyphs" textLength="69" x="28" y="100.2969">SourceOp</text><ellipse cx="65.5" cy="13" fill="#FEFECE" filter="url(#f1)" rx="8" ry="8" style="stroke: #A80036; stroke-width: 2.0;"/><path d="M65.5,21 L65.5,48 M52.5,29 L78.5,29 M65.5,48 L52.5,63 M65.5,48 L78.5,63 " fill="#FEFECE" filter="url(#f1)" style="stroke: #A80036; stroke-width: 2.0;"/><text fill="#000000" font-family="sans-serif" font-size="14" font-style="italic" lengthAdjust="spacingAndGlyphs" textLength="122" x="133" y="84">&lt;&lt;FileSystem&gt;&gt;</text><text fill="#000000" font-family="sans-serif" font-size="14" lengthAdjust="spacingAndGlyphs" textLength="41" x="173.5" y="100.2969">INotify</text><ellipse cx="197" cy="13" fill="#FEFECE" filter="url(#f1)" rx="8" ry="8" style="stroke: #A80036; stroke-width: 2.0;"/><path d="M197,21 L197,48 M184,29 L210,29 M197,48 L184,63 M197,48 L210,63 " fill="#FEFECE" filter="url(#f1)" style="stroke: #A80036; stroke-width: 2.0;"/><text fill="#000000" font-family="sans-serif" font-size="14" lengthAdjust="spacingAndGlyphs" textLength="96" x="271" y="99.292">Source Folder</text><path d="M304,54.2969 C304,44.2969 322,44.2969 322,44.2969 C322,44.2969 340,44.2969 340,54.2969 L340,76.2969 C340,86.2969 322,86.2969 322,86.2969 C322,86.2969 304,86.2969 304,76.2969 L304,54.2969 " fill="#FEFECE" filter="url(#f1)" style="stroke: #A80036; stroke-width: 1.5;"/><path d="M304,54.2969 C304,64.2969 322,64.2969 322,64.2969 C322,64.2969 340,64.2969 340,54.2969 " fill="none" style="stroke: #A80036; stroke-width: 1.5;"/><text fill="#000000" font-family="sans-serif" font-size="14" lengthAdjust="spacingAndGlyphs" textLength="74" x="413" y="99.292">File Events</text><path d="M432.5,58.2969 L432.5,82.2969 M432.5,70.2969 L449.5,70.2969 " fill="#FEFECE" filter="url(#f1)" style="stroke: #A80036; stroke-width: 2.0;"/><ellipse cx="461.5" cy="70.2969" fill="#FEFECE" filter="url(#f1)" rx="12" ry="12" style="stroke: #A80036; stroke-width: 2.0;"/><rect fill="#FEFECE" filter="url(#f1)" height="30.2969" style="stroke: #A80036; stroke-width: 1.5;" width="100" x="568" y="67.2969"/><text fill="#000000" font-family="sans-serif" font-size="14" lengthAdjust="spacingAndGlyphs" textLength="86" x="575" y="87.292">Data Service</text><rect fill="#FEFECE" filter="url(#f1)" height="30.2969" style="stroke: #A80036; stroke-width: 1.5;" width="89" x="874.5" y="67.2969"/><text fill="#000000" font-family="sans-serif" font-size="14" lengthAdjust="spacingAndGlyphs" textLength="75" x="881.5" y="87.292">Data Client</text><text fill="#000000" font-family="sans-serif" font-size="14" lengthAdjust="spacingAndGlyphs" textLength="76" x="1014.5" y="99.292">Sink Folder</text><path d="M1037.5,54.2969 C1037.5,44.2969 1055.5,44.2969 1055.5,44.2969 C1055.5,44.2969 1073.5,44.2969 1073.5,54.2969 L1073.5,76.2969 C1073.5,86.2969 1055.5,86.2969 1055.5,86.2969 C1055.5,86.2969 1037.5,86.2969 1037.5,76.2969 L1037.5,54.2969 " fill="#FEFECE" filter="url(#f1)" style="stroke: #A80036; stroke-width: 1.5;"/><path d="M1037.5,54.2969 C1037.5,64.2969 1055.5,64.2969 1055.5,64.2969 C1055.5,64.2969 1073.5,64.2969 1073.5,54.2969 " fill="none" style="stroke: #A80036; stroke-width: 1.5;"/><rect fill="#FFFFFF" filter="url(#f1)" height="392.1875" style="stroke: #A80036; stroke-width: 1.0;" width="10" x="448" y="162.7266"/><rect fill="#FFFFFF" filter="url(#f1)" height="442.3203" style="stroke: #A80036; stroke-width: 1.0;" width="10" x="615" y="112.5938"/><rect fill="#FFFFFF" filter="url(#f1)" height="303.7891" style="stroke: #A80036; stroke-width: 1.0;" width="10" x="620" y="250.125"/><rect fill="#FFFFFF" filter="url(#f1)" height="181.125" style="stroke: #A80036; stroke-width: 1.0;" width="10" x="804.5" y="313.3906"/><rect fill="#FFFFFF" filter="url(#f1)" height="442.3203" style="stroke: #A80036; stroke-width: 1.0;" width="10" x="916" y="112.5938"/><polygon fill="#A80036" points="603,129.5938,613,133.5938,603,137.5938,607,133.5938" style="stroke: #A80036; stroke-width: 1.0;"/><line style="stroke: #A80036; stroke-width: 1.0;" x1="65.5" x2="609" y1="133.5938" y2="133.5938"/><text fill="#000000" font-family="sans-serif" font-size="13" lengthAdjust="spacingAndGlyphs" textLength="177" x="72.5" y="128.6606">tell location of SourceFolder</text><polygon fill="#A80036" points="469,158.7266,459,162.7266,469,166.7266,465,162.7266" style="stroke: #A80036; stroke-width: 1.0;"/><line style="stroke: #A80036; stroke-width: 1.0;" x1="463" x2="614" y1="162.7266" y2="162.7266"/><text fill="#000000" font-family="sans-serif" font-size="13" lengthAdjust="spacingAndGlyphs" textLength="138" x="475" y="157.7935">start on SourceFolder</text><polygon fill="#A80036" points="208,187.8594,198,191.8594,208,195.8594,204,191.8594" style="stroke: #A80036; stroke-width: 1.0;"/><line style="stroke: #A80036; stroke-width: 1.0;" x1="202" x2="447" y1="191.8594" y2="191.8594"/><text fill="#000000" font-family="sans-serif" font-size="13" lengthAdjust="spacingAndGlyphs" textLength="227" x="214" y="186.9263">register to changes in SourceFolder</text><polygon fill="#A80036" points="469,216.9922,459,220.9922,469,224.9922,465,220.9922" style="stroke: #A80036; stroke-width: 1.0;"/><line style="stroke: #A80036; stroke-width: 1.0;" x1="463" x2="614" y1="220.9922" y2="220.9922"/><text fill="#000000" font-family="sans-serif" font-size="13" lengthAdjust="spacingAndGlyphs" textLength="90" x="475" y="216.0591">poll for events</text><polygon fill="#A80036" points="608,246.125,618,250.125,608,254.125,612,250.125" style="stroke: #A80036; stroke-width: 1.0;"/><line style="stroke: #A80036; stroke-width: 1.0; stroke-dasharray: 2.0,2.0;" x1="458" x2="614" y1="250.125" y2="250.125"/><text fill="#000000" font-family="sans-serif" font-size="13" lengthAdjust="spacingAndGlyphs" textLength="83" x="465" y="245.1919">set of events</text><rect fill="none" height="281.6563" style="stroke: #000000; stroke-width: 2.0;" width="845.5" x="261" y="265.2578"/><polygon fill="#EEEEEE" points="261,265.2578,338,265.2578,338,272.2578,328,282.2578,261,282.2578,261,265.2578" style="stroke: #000000; stroke-width: 2.0;"/><text fill="#000000" font-family="sans-serif" font-size="13" font-weight="bold" lengthAdjust="spacingAndGlyphs" textLength="32" x="276" y="278.3247">loop</text><text fill="#000000" font-family="sans-serif" font-size="11" font-weight="bold" lengthAdjust="spacingAndGlyphs" textLength="103" x="353" y="277.4683">[for each event]</text><polygon fill="#A80036" points="757,299.3906,767,303.3906,757,307.3906,761,303.3906" style="stroke: #A80036; stroke-width: 1.0;"/><line style="stroke: #A80036; stroke-width: 1.0;" x1="630" x2="763" y1="303.3906" y2="303.3906"/><text fill="#000000" font-family="sans-serif" font-size="13" lengthAdjust="spacingAndGlyphs" textLength="115" x="637" y="298.4575">create from event</text><rect fill="#FEFECE" filter="url(#f1)" height="46.5938" style="stroke: #A80036; stroke-width: 1.5;" width="77" x="769" y="282.3906"/><text fill="#000000" font-family="sans-serif" font-size="14" lengthAdjust="spacingAndGlyphs" textLength="59" x="778" y="302.3857">File Data</text><text fill="#000000" font-family="sans-serif" font-size="14" lengthAdjust="spacingAndGlyphs" textLength="63" x="776" y="318.6826">Message</text><polygon fill="#A80036" points="333,360.9844,323,364.9844,333,368.9844,329,364.9844" style="stroke: #A80036; stroke-width: 1.0;"/><line style="stroke: #A80036; stroke-width: 1.0;" x1="327" x2="803.5" y1="364.9844" y2="364.9844"/><text fill="#000000" font-family="sans-serif" font-size="13" lengthAdjust="spacingAndGlyphs" textLength="144" x="339" y="360.0513">content and stat of file</text><polygon fill="#A80036" points="792.5,375.1172,802.5,379.1172,792.5,383.1172,796.5,379.1172" style="stroke: #A80036; stroke-width: 1.0;"/><line style="stroke: #A80036; stroke-width: 1.0; stroke-dasharray: 2.0,2.0;" x1="322" x2="798.5" y1="379.1172" y2="379.1172"/><line style="stroke: #A80036; stroke-width: 1.0;" x1="814.5" x2="856.5" y1="438.5156" y2="438.5156"/><line style="stroke: #A80036; stroke-width: 1.0;" x1="856.5" x2="856.5" y1="438.5156" y2="451.5156"/><line style="stroke: #A80036; stroke-width: 1.0;" x1="815.5" x2="856.5" y1="451.5156" y2="451.5156"/><polygon fill="#A80036" points="825.5,447.5156,815.5,451.5156,825.5,455.5156,821.5,451.5156" style="stroke: #A80036; stroke-width: 1.0;"/><text fill="#000000" font-family="sans-serif" font-size="13" lengthAdjust="spacingAndGlyphs" textLength="69" x="821.5" y="403.1841">path offset</text><text fill="#000000" font-family="sans-serif" font-size="13" lengthAdjust="spacingAndGlyphs" textLength="64" x="821.5" y="418.3169">relative to</text><text fill="#000000" font-family="sans-serif" font-size="13" lengthAdjust="spacingAndGlyphs" textLength="84" x="821.5" y="433.4497">SourceFolder</text><polygon fill="#A80036" points="641,461.5156,631,465.5156,641,469.5156,637,465.5156" style="stroke: #A80036; stroke-width: 1.0;"/><line style="stroke: #A80036; stroke-width: 1.0; stroke-dasharray: 2.0,2.0;" x1="635" x2="803.5" y1="465.5156" y2="465.5156"/><polygon fill="#A80036" points="904,490.5156,914,494.5156,904,498.5156,908,494.5156" style="stroke: #A80036; stroke-width: 1.0;"/><line style="stroke: #A80036; stroke-width: 1.0;" x1="630" x2="910" y1="494.5156" y2="494.5156"/><text fill="#000000" font-family="sans-serif" font-size="13" lengthAdjust="spacingAndGlyphs" textLength="68" x="637" y="489.5825">{FileData}</text><line style="stroke: #A80036; stroke-width: 2.0;" x1="800.5" x2="818.5" y1="485.5156" y2="503.5156"/><line style="stroke: #A80036; stroke-width: 2.0;" x1="800.5" x2="818.5" y1="503.5156" y2="485.5156"/><polygon fill="#A80036" points="1043.5,534.6484,1053.5,538.6484,1043.5,542.6484,1047.5,538.6484" style="stroke: #A80036; stroke-width: 1.0;"/><line style="stroke: #A80036; stroke-width: 1.0;" x1="926" x2="1049.5" y1="538.6484" y2="538.6484"/><text fill="#000000" font-family="sans-serif" font-size="13" lengthAdjust="spacingAndGlyphs" textLength="63" x="933" y="518.7153">create file</text><text fill="#000000" font-family="sans-serif" font-size="13" lengthAdjust="spacingAndGlyphs" textLength="102" x="933" y="533.8481">from {FileData}</text></g></svg>